<svg width="689" height="689" viewBox="0 0 689 689" fill="none" xmlns="http://www.w3.org/2000/svg">
<g clip-path="url(#clip0)">
<path fill-rule="evenodd" clip-rule="evenodd" d="M43.6866 657.815H50.473L76.1395 503.396L66.8904 501.791L43.6866 657.815Z" fill="#B3C1CF"/>
<path fill-rule="evenodd" clip-rule="evenodd" d="M96.1105 656.566H102.451L126.067 504.287H115.695L96.1105 656.566Z" fill="#B3C1CF"/>
<path fill-rule="evenodd" clip-rule="evenodd" d="M176.394 657.815H183.484L159.543 504.287L149.783 504.495L176.394 657.815Z" fill="#B3C1CF"/>
<path fill-rule="evenodd" clip-rule="evenodd" d="M331.369 127.021C328.835 135.833 325.453 150.084 311.598 151.382C312.035 155.326 313.558 160.529 318.5 161.775C326.701 163.84 328.748 172.398 328.748 172.398L309.426 239.671H285.423C285.423 239.671 253.644 162.689 256.003 162.344C256.89 162.219 275.188 160.006 279.869 154.4C283.239 150.356 283.726 142.344 283.738 138.174C280.879 134.792 278.491 131.039 276.636 127.018L273.416 109.313L296.832 83.6479H331.669L335.763 93.3838C335.763 93.3838 334.003 117.875 331.369 127.021Z" fill="#8E5E51"/>
<path fill-rule="evenodd" clip-rule="evenodd" d="M277.26 155.922C277.264 155.921 277.268 155.921 277.273 155.922C277.268 155.921 277.264 155.921 277.26 155.922ZM277.298 155.891C277.31 155.891 277.31 155.891 277.31 155.891C277.31 155.891 277.31 155.891 277.298 155.891ZM277.385 155.828C277.389 155.826 277.393 155.824 277.397 155.821C277.394 155.824 277.39 155.827 277.385 155.828ZM277.422 155.798C277.426 155.795 277.43 155.791 277.435 155.788C277.43 155.791 277.426 155.795 277.422 155.798ZM277.46 155.768C277.472 155.768 277.472 155.76 277.485 155.755C277.472 155.755 277.472 155.763 277.46 155.768ZM277.497 155.737C277.51 155.737 277.51 155.727 277.522 155.722C277.51 155.722 277.51 155.732 277.497 155.737ZM277.547 155.706C277.547 155.706 277.56 155.695 277.56 155.69C277.56 155.685 277.547 155.701 277.547 155.706ZM277.585 155.676C277.585 155.668 277.597 155.663 277.597 155.657C277.597 155.651 277.585 155.668 277.585 155.676ZM277.622 155.642C277.631 155.637 277.639 155.632 277.647 155.626C277.639 155.632 277.631 155.637 277.622 155.642ZM277.659 155.611C277.672 155.611 277.672 155.6 277.684 155.594C277.672 155.594 277.672 155.605 277.659 155.611ZM277.697 155.579C277.706 155.574 277.714 155.568 277.722 155.562C277.709 155.562 277.709 155.574 277.697 155.579ZM277.734 155.547C277.745 155.545 277.754 155.539 277.759 155.53C277.754 155.539 277.745 155.545 277.734 155.547ZM277.772 155.517C277.782 155.514 277.791 155.507 277.797 155.497C277.791 155.507 277.782 155.514 277.772 155.517ZM277.822 155.484C277.822 155.484 277.834 155.471 277.834 155.464C277.834 155.456 277.822 155.477 277.822 155.484ZM277.859 155.452C277.864 155.442 277.873 155.435 277.884 155.431C277.873 155.435 277.864 155.442 277.859 155.452ZM277.897 155.42C277.902 155.41 277.911 155.402 277.922 155.398C277.911 155.402 277.902 155.41 277.897 155.42ZM277.934 155.388C277.94 155.378 277.949 155.37 277.959 155.365C277.949 155.37 277.94 155.378 277.934 155.388ZM277.971 155.356C277.976 155.346 277.985 155.337 277.996 155.333C277.985 155.337 277.976 155.346 277.971 155.356ZM278.009 155.324C278.014 155.313 278.023 155.304 278.034 155.299C278.023 155.304 278.014 155.313 278.009 155.324ZM278.046 155.291C278.051 155.28 278.06 155.27 278.071 155.265C278.06 155.27 278.051 155.28 278.046 155.291ZM278.084 155.259C278.089 155.248 278.098 155.238 278.109 155.233C278.098 155.238 278.089 155.248 278.084 155.259ZM278.109 155.227L278.146 155.198L278.109 155.227ZM278.146 155.193L278.184 155.165L278.146 155.193ZM278.184 155.16L278.221 155.132L278.184 155.16ZM278.221 155.128L278.259 155.099L278.221 155.128ZM278.259 155.094L278.296 155.064L278.259 155.094ZM278.296 155.061L278.334 155.032L278.296 155.061ZM278.334 155.028C278.346 155.018 278.346 155.007 278.358 154.998C278.346 155.009 278.346 155.018 278.334 155.028ZM278.371 154.994C278.376 154.982 278.385 154.971 278.396 154.963C278.385 154.971 278.376 154.982 278.371 154.994ZM278.396 154.962L278.433 154.929L278.396 154.962ZM278.433 154.927L278.471 154.896L278.433 154.927ZM278.471 154.895L278.508 154.862L278.471 154.895ZM278.508 154.861C278.521 154.85 278.521 154.84 278.533 154.828C278.521 154.84 278.521 154.85 278.508 154.861ZM278.533 154.826L278.571 154.793L278.533 154.826ZM278.571 154.793C278.733 154.634 278.883 154.472 279.02 154.309C278.883 154.476 278.733 154.637 278.571 154.793ZM279.02 154.307C279.032 154.299 279.041 154.287 279.045 154.273C279.041 154.287 279.032 154.299 279.02 154.307ZM279.045 154.273C279.07 154.253 279.091 154.229 279.107 154.202C279.09 154.228 279.069 154.252 279.045 154.273ZM279.107 154.201L279.22 154.058L279.107 154.201ZM279.22 154.058L279.257 154.025L279.22 154.058ZM279.257 154.023C279.259 154.016 279.262 154.009 279.266 154.003C279.27 153.997 279.276 153.991 279.282 153.987C279.276 153.991 279.27 153.997 279.266 154.003C279.262 154.009 279.259 154.016 279.257 154.023ZM279.282 153.987C279.295 153.962 279.32 153.94 279.332 153.916C279.32 153.94 279.295 153.962 279.282 153.987ZM279.332 153.913C279.344 153.907 279.353 153.895 279.357 153.882C279.353 153.895 279.344 153.907 279.332 153.913ZM279.369 153.877C279.373 153.863 279.382 153.851 279.394 153.842C279.382 153.851 279.374 153.863 279.369 153.877ZM279.394 153.842C279.407 153.815 279.424 153.789 279.444 153.767C279.424 153.789 279.407 153.815 279.394 153.842ZM279.444 153.767C279.457 153.741 279.474 153.718 279.494 153.698C279.474 153.718 279.457 153.741 279.444 153.767ZM279.494 153.695C279.507 153.681 279.507 153.67 279.519 153.659C279.507 153.67 279.507 153.681 279.494 153.695ZM279.519 153.656C279.532 153.648 279.532 153.638 279.544 153.628C279.532 153.638 279.532 153.648 279.519 153.656ZM279.544 153.62C279.557 153.61 279.557 153.599 279.569 153.588C279.557 153.599 279.557 153.61 279.544 153.62ZM279.569 153.584C279.582 153.57 279.582 153.558 279.594 153.547C279.582 153.558 279.582 153.57 279.569 153.584Z" fill="#B3C1CF"/>
<path fill-rule="evenodd" clip-rule="evenodd" d="M270.857 164.78C276.898 162.159 283.289 161.857 288.606 161.857C289.392 161.857 290.166 161.866 290.903 161.871C291.639 161.876 292.351 161.884 293.025 161.884C296.095 161.884 298.467 161.746 299.69 160.84C303.247 158.181 307.591 153.293 303.048 149.008C294.797 141.234 305.694 138.626 307.167 125.573C308.627 112.746 298.966 104.429 311.648 104.429C311.872 104.429 312.097 104.429 312.334 104.437C317.951 104.561 321.77 104.966 324.829 104.966C327.986 105.143 331.11 104.244 333.691 102.417C334.489 99.113 336.649 95.6056 336.986 91.6539C337.211 89.0177 336 88.1065 334.552 88.1065C333.813 88.1386 333.089 88.3213 332.424 88.6432C331.759 88.9652 331.166 89.4196 330.683 89.9788C329.135 91.9759 330.283 95.3073 327.961 95.7517C327.748 95.7933 327.53 95.8146 327.312 95.8153C325.403 95.8153 324.304 94.0454 323.605 92.5376C322.906 91.0298 321.958 88.6532 319.936 88.6532C319.683 88.6547 319.431 88.6887 319.187 88.7543C316.64 89.4221 316.491 92.0408 315.941 94.8205C315.797 95.5191 315.406 96.1424 314.84 96.5763C314.274 97.0102 313.57 97.2257 312.858 97.1833C312.304 97.1845 311.756 97.0699 311.249 96.8468C310.741 96.6237 310.286 96.297 309.913 95.8877C308.153 93.8906 308.677 92.9345 308.714 89.9688C308.765 89.6383 308.741 89.3007 308.644 88.9806C308.548 88.6605 308.381 88.366 308.156 88.1186C307.931 87.8712 307.654 87.677 307.345 87.5503C307.035 87.4236 306.702 87.3676 306.368 87.3863C304.396 87.3863 301.937 89.1475 302.161 91.6002C302.386 94.0529 306.031 95.0876 304.708 97.765C304.071 99.0344 303.584 99.3726 303.048 99.3726C302.694 99.3441 302.346 99.269 302.012 99.1492C301.563 99.0063 301.097 98.9302 300.626 98.9233C300.501 98.9233 300.377 98.9233 300.239 98.942C297.905 99.1654 297.119 100.055 298.766 102.725C300.414 105.395 301.275 108.668 300.726 110.447C300.277 111.891 299.54 114.066 297.98 114.066C297.54 114.049 297.113 113.913 296.744 113.673C294.31 112.226 294.647 106.558 290.89 105.776C290.406 105.673 289.912 105.62 289.417 105.619C286.459 105.619 284.5 107.758 284.699 111.894C284.911 116.678 287.57 122.349 288.893 123.574C289.521 124.121 290.332 124.411 291.165 124.388C291.493 124.391 291.82 124.354 292.139 124.278C292.139 124.278 291.452 130.234 290.453 135.306C291.028 145.328 289.13 156.491 270.857 164.774V164.78ZM281.541 153.291L281.579 153.246L281.541 153.291ZM281.579 153.239L281.616 153.198L281.579 153.239ZM281.629 153.191C281.632 153.174 281.641 153.159 281.654 153.147C281.641 153.158 281.632 153.174 281.629 153.191ZM281.666 153.141C281.679 153.128 281.679 153.115 281.691 153.102C281.679 153.115 281.679 153.128 281.666 153.141ZM281.704 153.093C281.708 153.078 281.716 153.064 281.729 153.054C281.716 153.064 281.708 153.078 281.704 153.093ZM281.741 153.042C281.753 153.033 281.762 153.02 281.766 153.005C281.762 153.02 281.753 153.033 281.741 153.042ZM281.779 152.986C281.791 152.979 281.791 152.971 281.804 152.964C281.791 152.971 281.791 152.979 281.779 152.986Z" fill="#664647"/>
<path fill-rule="evenodd" clip-rule="evenodd" d="M291.365 126.549C290.806 126.689 290.222 126.699 289.66 126.576C289.097 126.454 288.57 126.203 288.119 125.844C286.796 124.617 284.138 118.934 283.925 114.141C283.713 109.348 286.359 107.232 290.117 108.013C293.874 108.793 293.549 114.476 295.983 115.925C298.417 117.374 299.403 114.476 299.965 112.692C300.526 110.908 299.665 107.632 298.005 104.953C296.345 102.275 297.144 101.387 299.478 101.163C300.073 101.114 300.671 101.184 301.238 101.371C302.311 101.677 302.948 101.986 303.934 99.9843C305.269 97.3007 301.612 96.2497 301.4 93.807C301.026 89.7379 308.015 87.566 307.953 92.1743C307.916 95.145 307.391 96.0974 309.164 98.102C310.936 100.107 314.631 99.8207 315.18 97.0348C315.729 94.2488 315.892 91.6252 318.425 90.9561C320.959 90.2871 322.083 93.078 322.857 94.7456C323.63 96.4132 324.879 98.4128 327.2 97.9672C329.522 97.5216 328.386 94.1877 329.934 92.1831C331.481 90.1785 336.674 88.617 336.237 93.8557C335.8 99.0943 332.143 103.55 332.705 107.785C333.266 112.021 331.369 122.389 331.481 126.174C331.594 129.958 331.631 131.645 334.252 131.078C336.874 130.511 341.217 122.608 341.542 119.04C341.866 115.473 339.557 107.451 341.43 103.774C343.302 100.097 350.616 104.888 349.955 95.9726C349.293 87.0568 345.187 88.4298 346.073 84.9373C346.959 81.4449 352.751 83.7241 351.902 78.7888C351.24 74.9194 346.41 77.0413 345.274 73.7473C343.427 68.4213 352.164 66.8823 350.504 63.3175C348.844 59.7527 339.22 62.7608 338.122 59.9748C337.023 57.1889 345.973 52.0613 343.314 48.3841C341.792 46.2685 338.371 46.8439 335.426 47.4168C333.241 47.8424 331.332 48.2668 330.658 47.6028C329.048 46.0426 330.658 43.2017 329.597 39.6918C328.536 36.1819 322.307 34.7877 318.875 37.5699C315.442 40.3521 315.555 43.1418 314.444 41.5828C313.333 40.0238 314.444 35.1184 310.911 35.1184C307.379 35.1184 301.725 37.2403 297.968 34.3383C294.21 31.4362 291.777 24.6411 287.682 28.7651C283.588 32.8891 287.682 36.4552 286.746 37.6273C286.322 38.144 285.885 37.8033 285.323 37.4613C285.122 37.292 284.887 37.1682 284.633 37.0984C284.38 37.0285 284.114 37.0143 283.854 37.0566C283.595 37.0989 283.347 37.1968 283.129 37.3435C282.911 37.4903 282.727 37.6824 282.59 37.9069C280.493 40.2472 281.105 42.6425 277.834 42.4765C274.564 42.3105 275.188 36.6811 272.417 33.7841C269.646 30.887 263.68 33.7841 264.341 38.6857C265.003 43.5874 271.194 43.1443 270.982 46.4882C270.7 49.2624 269.354 51.8193 267.225 53.6203C265.777 54.846 262.569 53.6203 261.683 55.1818C260.797 56.7433 262.794 61.9794 261.683 63.0953C260.572 64.2112 259.473 64.3198 255.267 61.0882C251.061 57.8566 246.867 65.2072 249.75 67.6637C252.633 70.1201 258.924 73.6812 257.813 77.8039C256.703 81.9267 250.075 79.1432 249.188 82.5982C248.302 86.0532 254.942 90.9549 253.507 92.5151C252.933 93.1392 251.448 93.0144 249.862 92.8895C247.478 92.7023 244.857 92.5151 244.657 94.8567C244.32 98.7561 251.735 101.098 251.073 104.776C250.412 108.454 244.32 108.564 245.756 111.797C246.442 113.322 248.627 113.158 250.811 112.995C253.257 112.812 255.691 112.63 256.053 114.805C256.715 118.924 249.962 117.815 251.073 120.935C251.672 122.65 253.819 122.308 255.554 121.974C256.977 121.695 258.125 121.419 257.926 122.272C257.489 124.167 256.153 124.057 253.17 125.17C250.187 126.284 253.17 129.85 255.379 129.74C257.589 129.63 273.303 126.84 273.64 129.516C273.977 132.192 268.211 132.637 270.433 134.421C270.809 134.753 271.296 134.932 271.798 134.921C272.3 134.91 272.78 134.71 273.141 134.362C273.853 133.899 274.477 133.433 275.188 134.198C276.624 135.757 271.868 138.99 275.188 138.767C278.508 138.543 279.17 135.423 281.541 136.299C283.913 137.175 282.59 138.878 281.666 142.827C280.743 146.776 285.723 146.921 287.682 144.228C289.642 141.534 291.365 126.544 291.365 126.544" fill="#233144"/>
<path fill-rule="evenodd" clip-rule="evenodd" d="M366.967 383.512L380.385 375.724C380.385 375.724 377.964 378.171 389.41 386.628C400.856 395.086 410.529 393.749 419.541 395.754C428.553 397.758 428.129 404.432 428.129 404.432H384.143C380.202 404.414 376.4 402.979 373.43 400.39C370.46 397.8 368.521 394.229 367.966 390.328L366.967 383.508" fill="#8E5E51"/>
<path fill-rule="evenodd" clip-rule="evenodd" d="M365.944 390.702C365.944 390.702 354.972 354.145 351.015 343.103C347.059 332.06 342.665 307.759 340.481 297.158C338.297 286.557 322.033 261.816 322.033 261.816L330.82 167.277C333.541 167.108 345.661 175.622 347.845 192.556C349.568 205.758 357.606 277.276 363.747 288.321C369.888 299.366 385.69 382.964 385.69 382.964L365.944 390.702Z" fill="#D9E2E9"/>
<path fill-rule="evenodd" clip-rule="evenodd" d="M260.871 640.379V634.637L276.449 632.851C276.449 632.851 283.988 643.274 288.906 646.254C293.824 649.233 297.319 649.827 310.362 652.211C323.406 654.596 320.51 659.063 320.51 659.063H260.871V640.379Z" fill="#B3C1CF"/>
<path fill-rule="evenodd" clip-rule="evenodd" d="M309.551 642.729V637.761L331.981 636.595V641.004C331.981 641.004 344.263 649.724 358.205 650.75C372.147 651.776 375.705 659.063 375.705 659.063H309.551V642.729Z" fill="#B3C1CF"/>
<path fill-rule="evenodd" clip-rule="evenodd" d="M215.937 356.834L334.914 355.753C334.914 355.753 347.995 382.263 352.863 401.49C357.731 420.717 365.033 462.046 362.811 477.076C360.589 492.105 336.724 633.988 337.161 638.851C337.598 643.714 309.738 644.593 309.738 638.851C309.738 633.109 306.43 595.755 306.43 595.755C306.43 595.755 313.283 588.902 311.51 546.471C310.411 521.174 312.043 495.833 316.378 470.886L291.165 420.38V492.546C291.165 492.546 284.974 633.546 284.974 637.967C284.974 642.388 259.76 643.709 259.76 637.967C259.76 632.225 252.833 588.608 249.887 566.214C246.942 543.82 249.887 511.405 248.714 491.955C247.541 472.506 233.96 437.735 225.123 410.034C219.725 392.784 216.636 374.895 215.937 356.834Z" fill="#FFA500"/>
<path fill-rule="evenodd" clip-rule="evenodd" d="M352.626 345.768C353.462 328.131 363.223 302.438 354.885 286.645C344.974 267.859 352.114 250.611 344.924 218.452C345.238 222.677 345.292 226.917 345.087 231.149C343.626 239.328 335.813 256.053 328.274 269.727C333.117 277.864 339.682 289.731 341.005 296.243C343.164 306.797 347.471 330.984 351.34 341.978C351.714 343.027 352.139 344.31 352.626 345.768Z" fill="#BAC5D6"/>
<path fill-rule="evenodd" clip-rule="evenodd" d="M267.05 159.787L249.6 162.079C249.6 162.079 223.863 167.178 219.569 198.511C216.498 220.979 229.342 256.938 238.953 289.583L237.967 298.983C237.967 298.983 226.771 312.089 222.39 322.707C217.672 334.168 214.651 347.409 216.473 365.818C225.348 371.56 259.523 383.917 292.987 379.944C326.451 375.971 339.732 362.025 339.732 362.025L315.604 302.549L313.882 291.308C319.649 287.775 342.952 246.187 345.611 231.618C346.397 227.294 343.826 179.731 337.922 171.111C335.213 167.178 324.279 162.35 324.279 162.35C322.644 171.225 321.434 196.809 306.493 223.668C306.104 224.356 305.525 224.918 304.827 225.287C304.128 225.656 303.338 225.816 302.551 225.749C301.764 225.683 301.012 225.391 300.386 224.91C299.759 224.429 299.284 223.778 299.016 223.034C292.401 204.459 277.635 174.772 267.05 159.787Z" fill="#FFFFFE"/>
<path fill-rule="evenodd" clip-rule="evenodd" d="M282.24 386.17C282.24 386.17 289.655 400.025 285.735 401.361C281.816 402.696 272.642 408.513 276.998 419.683C281.354 430.853 287.907 430.854 291.839 427.28C295.771 423.707 291.839 412.98 294.023 408.513C296.208 404.045 305.806 408.513 305.806 399.574C305.806 390.636 299.441 379.469 299.441 379.469L282.24 386.171" fill="#8E5E51"/>
<path fill-rule="evenodd" clip-rule="evenodd" d="M238.129 289.599C283.102 303.07 312.833 291.317 312.833 291.317L314.543 302.518C267.524 314.539 237.156 298.964 237.156 298.964L238.129 289.603" fill="#233144"/>
<path fill-rule="evenodd" clip-rule="evenodd" d="M282.303 385.668C282.303 385.668 277.747 378.003 271.755 359.302C265.764 340.6 259.573 306.503 257.127 299.022C254.68 291.54 230.99 242.197 226.559 224.155C222.128 206.114 218.246 176.066 245.718 168.807C257.164 165.78 259.074 187.711 264.616 204.652C270.158 221.594 284.175 280.32 286.172 291.099C288.169 301.879 291.252 301.037 295.484 323.441C299.715 345.845 306.655 380.589 305.719 383.128C304.783 385.667 282.977 388.745 282.303 385.668Z" fill="#F4F6F8"/>
<path fill-rule="evenodd" clip-rule="evenodd" d="M259.623 637.805C259.623 632.072 252.646 588.556 249.675 566.213C247.703 551.318 248.365 531.981 248.664 514.996C248.352 531.982 247.703 551.318 249.675 566.215C252.646 588.558 259.623 632.075 259.623 637.807V637.805ZM216.024 367.474C216.014 367.452 216.01 367.428 216.012 367.404C216.01 367.428 216.014 367.452 216.024 367.474ZM216.012 367.339C215.999 367.294 215.999 367.248 215.987 367.203C215.999 367.248 215.999 367.294 216.012 367.339ZM215.987 367.162C215.989 367.131 215.984 367.1 215.974 367.07C215.984 367.1 215.989 367.131 215.987 367.162ZM215.974 367.03C215.974 366.985 215.962 366.939 215.962 366.894C215.962 366.939 215.974 366.985 215.974 367.03ZM215.962 366.818C215.951 366.8 215.947 366.778 215.949 366.757C215.947 366.778 215.951 366.8 215.962 366.818ZM226.259 316.366C229.679 310.933 233.47 305.743 237.605 300.833C233.471 305.745 229.68 310.935 226.259 316.368" fill="#B3C1CF"/>
<path fill-rule="evenodd" clip-rule="evenodd" d="M269.609 661.559C267.69 655.112 266.304 648.518 265.465 641.844C263.848 641.657 262.286 641.145 260.871 640.34V661.559H269.609Z" fill="#7B91AD"/>
<path fill-rule="evenodd" clip-rule="evenodd" d="M265.515 641.588C264.601 634.619 264.362 627.578 264.803 620.563C266.363 595.981 259.598 574.542 262.095 535.877L248.739 515.048C248.427 532.072 247.778 551.453 249.737 566.379C252.671 588.774 259.573 632.385 259.573 638.132V638.168C259.609 638.579 259.749 638.974 259.981 639.316C260.212 639.657 260.528 639.934 260.896 640.119V640.133C262.326 640.915 263.895 641.409 265.515 641.587V641.588ZM268.61 442.354C273.753 438.394 281.541 436.023 290.828 436.023V428.816C289.748 429.449 288.522 429.788 287.271 429.799C283.913 429.799 280.206 427.249 277.397 420.188C277.037 419.286 276.749 418.357 276.536 417.409H227.42C228.643 421.127 229.929 424.934 231.227 428.777L245.631 433.811H245.619L265.215 440.661C266.381 441.153 267.515 441.718 268.61 442.351V442.354ZM242.311 406.184C239.859 396.308 238.367 386.219 237.855 376.056C227.857 373.11 220.205 369.73 216.586 367.401C217.788 380.528 220.225 393.513 223.863 406.184H242.311Z" fill="#FF8C00"/>
<path fill-rule="evenodd" clip-rule="evenodd" d="M237.455 376.972C237.256 372.697 237.231 368.279 237.405 363.699C237.48 361.666 237.605 359.682 237.742 357.754C236.182 357.039 234.522 356.192 232.737 355.198C228.319 352.735 222.614 349.757 216.573 346.694C216.142 350.378 215.93 354.084 215.937 357.793V358.025C215.949 360.933 216.086 363.977 216.361 367.18C216.361 367.18 216.361 367.188 216.373 367.191C216.371 367.238 216.376 367.285 216.386 367.331V367.392C216.384 367.419 216.388 367.445 216.398 367.47V367.607C216.403 367.613 216.407 367.619 216.409 367.626C216.411 367.633 216.412 367.64 216.411 367.647C216.409 367.678 216.413 367.71 216.423 367.739V367.781C216.423 367.827 216.436 367.873 216.436 367.918V367.985C216.436 368.008 216.448 368.033 216.448 368.056C216.448 368.1 216.461 368.145 216.461 368.189L216.573 368.265C220.131 370.608 227.632 374.007 237.455 376.973V376.972ZM243.621 327.333C245.957 319.912 249.238 312.823 253.382 306.239C247.862 305.072 242.5 303.258 237.405 300.833C233.377 305.797 229.694 311.033 226.384 316.503L243.621 327.332" fill="#B3C1CF"/>
<path fill-rule="evenodd" clip-rule="evenodd" d="M312.047 496.798C312.821 487.393 314.075 478.033 315.804 468.755C313.792 477.985 312.535 487.364 312.047 496.798ZM359.478 433.613C358.832 427.577 357.831 421.585 356.483 415.666H356.146C357.294 421.295 358.442 427.433 359.453 433.609H359.478" fill="#B3C1CF"/>
<path fill-rule="evenodd" clip-rule="evenodd" d="M309.551 634.099C313.096 631.821 315.991 627.128 318.263 620.906L306.805 603.294L309.551 634.099ZM323.705 557.04C323.261 552.507 322.574 548.001 321.646 543.542C313.195 504.204 326.913 497.531 327.525 467.266C328.136 437.536 339.208 432.344 348.706 432.344C352.328 432.527 355.929 432.992 359.478 433.735C358.467 427.516 357.331 421.337 356.183 415.667H293.836C294.048 418.807 294.26 422.014 293.324 424.229L315.941 469.127C315.941 469.127 313.745 480.046 312.209 497.366C311.623 506.9 311.548 516.557 311.585 526L323.705 557.04Z" fill="#FF8C00"/>
<path fill-rule="evenodd" clip-rule="evenodd" d="M266.101 161.036C269.984 160.246 273.742 158.934 277.273 157.135C273.742 158.933 269.984 160.244 266.101 161.033V161.036ZM277.273 157.131C277.291 157.125 277.308 157.116 277.323 157.104C277.308 157.116 277.291 157.125 277.273 157.131ZM277.323 157.104C277.341 157.097 277.357 157.088 277.372 157.076C277.357 157.088 277.341 157.097 277.323 157.104ZM277.385 157.073L277.422 157.046C277.41 157.056 277.397 157.064 277.385 157.073ZM277.435 157.044L277.472 157.019L277.435 157.044ZM277.485 157.014L277.522 156.99L277.485 157.014ZM277.535 156.984L277.572 156.962L277.535 156.984ZM277.585 156.954C277.595 156.95 277.604 156.943 277.61 156.933C277.604 156.943 277.595 156.95 277.585 156.954ZM277.622 156.925L277.659 156.903C277.647 156.91 277.635 156.919 277.622 156.925ZM277.684 156.894C277.69 156.885 277.699 156.878 277.709 156.875C277.699 156.878 277.69 156.885 277.684 156.894ZM277.734 156.864C277.74 156.855 277.749 156.849 277.759 156.847C277.749 156.849 277.74 156.855 277.734 156.864ZM277.784 156.833C277.787 156.829 277.791 156.825 277.795 156.823C277.799 156.82 277.804 156.818 277.809 156.818C277.804 156.818 277.799 156.82 277.795 156.823C277.791 156.825 277.787 156.829 277.784 156.833ZM277.822 156.803C277.831 156.801 277.84 156.796 277.847 156.789C277.84 156.796 277.831 156.801 277.822 156.803ZM277.872 156.772C277.881 156.77 277.89 156.765 277.897 156.758C277.89 156.765 277.881 156.77 277.872 156.772ZM277.922 156.743C277.934 156.743 277.934 156.734 277.947 156.729C277.934 156.729 277.934 156.738 277.922 156.743ZM277.972 156.712C277.979 156.706 277.987 156.701 277.996 156.699C277.987 156.701 277.979 156.706 277.972 156.712ZM278.021 156.683C278.021 156.683 278.034 156.674 278.034 156.669C278.034 156.665 278.021 156.678 278.021 156.683ZM278.059 156.653C278.067 156.649 278.075 156.644 278.084 156.641C278.075 156.644 278.067 156.649 278.059 156.653ZM278.109 156.622C278.121 156.622 278.121 156.615 278.134 156.611C278.121 156.611 278.121 156.618 278.109 156.622ZM278.159 156.592C278.163 156.588 278.167 156.584 278.171 156.581C278.167 156.584 278.163 156.588 278.159 156.592ZM278.209 156.561C278.209 156.561 278.209 156.553 278.221 156.551C278.209 156.551 278.209 156.558 278.209 156.561ZM278.246 156.53C278.259 156.53 278.259 156.53 278.259 156.52C278.259 156.51 278.259 156.52 278.246 156.53ZM278.296 156.498C278.3 156.496 278.305 156.494 278.309 156.491C278.304 156.493 278.3 156.496 278.296 156.498ZM278.346 156.469C278.346 156.469 278.346 156.469 278.359 156.461C278.346 156.461 278.346 156.461 278.346 156.469ZM278.384 156.437C278.388 156.435 278.392 156.433 278.396 156.43C278.392 156.433 278.388 156.435 278.384 156.437ZM278.433 156.406C278.433 156.406 278.433 156.406 278.446 156.399C278.433 156.399 278.433 156.399 278.433 156.406ZM278.471 156.375C278.483 156.375 278.483 156.375 278.483 156.375C278.483 156.375 278.483 156.375 278.471 156.375ZM278.521 156.342C278.521 156.342 278.521 156.342 278.533 156.342C278.521 156.342 278.521 156.342 278.521 156.342ZM278.558 156.312C278.571 156.312 278.571 156.312 278.571 156.312C278.571 156.312 278.571 156.312 278.558 156.312ZM278.646 156.25C278.658 156.25 278.658 156.25 278.658 156.25C278.658 156.25 278.658 156.25 278.646 156.25ZM278.733 156.188H278.745H278.733ZM279.956 155.112C279.969 155.112 279.969 155.112 279.969 155.112C279.969 155.112 279.969 155.112 279.956 155.112ZM280.431 154.563C280.431 154.563 280.431 154.555 280.443 154.55C280.431 154.55 280.431 154.56 280.431 154.563ZM280.468 154.514C280.468 154.514 280.48 154.501 280.48 154.495C280.48 154.489 280.468 154.508 280.468 154.514ZM280.493 154.473C280.505 154.464 280.514 154.451 280.518 154.436C280.514 154.451 280.505 154.464 280.493 154.473ZM280.53 154.426C282.281 151.678 283.347 148.549 283.638 145.303C283.341 148.548 282.276 151.675 280.53 154.426ZM281.005 142.999C281.013 142.696 281.055 142.395 281.129 142.101C281.055 142.395 281.013 142.696 281.005 142.999ZM274.439 138.076C274.514 138.076 274.601 138.076 274.701 138.068C274.601 138.068 274.514 138.076 274.439 138.076ZM277.547 136.953C278.508 136.244 279.207 135.463 280.206 135.455C279.207 135.455 278.508 136.243 277.547 136.953ZM274.065 133.124C274.027 133.124 273.99 133.124 273.952 133.124C273.99 133.124 274.027 133.124 274.065 133.124ZM255.105 129.094H255.005H255.105ZM255.105 129.094H255.205H255.105ZM255.604 129.06C255.629 129.06 255.654 129.06 255.679 129.052C255.654 129.052 255.629 129.052 255.604 129.06ZM252.833 124.632C252.838 124.632 252.843 124.63 252.847 124.628C252.851 124.626 252.855 124.622 252.858 124.618C252.855 124.622 252.851 124.626 252.847 124.628C252.843 124.63 252.838 124.632 252.833 124.632ZM252.883 124.611L252.958 124.58L252.883 124.611ZM252.97 124.575L253.008 124.557L252.97 124.575ZM253.033 124.552C255.891 123.475 257.214 123.554 257.676 121.821C257.214 123.55 255.891 123.474 253.033 124.552ZM255.854 114.212C255.855 114.189 255.851 114.166 255.841 114.145C255.851 114.166 255.855 114.189 255.854 114.212ZM250.836 112.444C251.46 112.397 252.072 112.354 252.658 112.353C252.072 112.353 251.46 112.397 250.836 112.444ZM244.645 94.2813C244.857 92.7198 246.23 92.3803 247.853 92.3803C248.464 92.3803 249.126 92.4314 249.762 92.4814C249.126 92.4314 248.464 92.3803 247.84 92.3803C246.23 92.3803 244.857 92.7198 244.645 94.2813ZM251.585 92.5825C252.204 92.6581 252.828 92.4957 253.332 92.1282C252.828 92.4957 252.204 92.6581 251.585 92.5825ZM249.014 82.914C249.011 82.6913 249.04 82.4694 249.101 82.255C249.862 79.2444 254.992 81.0068 256.977 78.7164C254.992 81.0031 249.862 79.2431 249.101 82.2537C249.041 82.4685 249.011 82.6909 249.014 82.914ZM249.613 67.3878C249.609 67.3822 249.605 67.3767 249.6 67.3716C249.605 67.3767 249.609 67.3822 249.613 67.3878ZM249.588 67.3641C247.341 65.3158 249.75 60.0797 252.958 60.0797C253.365 60.08 253.768 60.1619 254.144 60.3206C253.768 60.1619 253.365 60.08 252.958 60.0797C249.75 60.0797 247.341 65.3146 249.588 67.3641ZM259.998 63.5783C259.96 63.5783 259.91 63.5783 259.873 63.5783C259.91 63.5783 259.96 63.5783 259.998 63.5783ZM260.01 63.5783C260.27 63.5702 260.525 63.5082 260.759 63.3962C260.993 63.2843 261.201 63.1248 261.371 62.928C261.201 63.1248 260.993 63.2843 260.759 63.3962C260.525 63.5082 260.27 63.5702 260.01 63.5783ZM261.421 62.8756C261.7 62.4942 261.825 62.021 261.77 61.5513C261.825 62.021 261.7 62.4942 261.421 62.8756ZM255.978 61.5463C255.978 61.5463 255.966 61.5376 255.966 61.5326C255.966 61.5276 255.978 61.5413 255.978 61.5463ZM255.404 61.1182L255.292 61.0258L255.404 61.1182ZM255.205 60.9609C255.169 60.937 255.136 60.9103 255.105 60.881C255.136 60.9103 255.169 60.937 255.205 60.9609ZM255.105 60.881C254.931 60.7466 254.747 60.6252 254.555 60.5178C254.747 60.6252 254.931 60.7466 255.105 60.881ZM261.196 56.249C261.173 55.845 261.241 55.4409 261.396 55.0669C261.241 55.4409 261.173 55.845 261.196 56.249ZM266.875 53.4605C268.985 51.6675 270.318 49.1269 270.595 46.372C270.318 49.1269 268.985 51.6675 266.875 53.4605ZM277.672 42.3941C280.493 42.3941 280.056 40.1548 281.966 37.9368C280.056 40.1548 280.493 42.3916 277.672 42.3941ZM264.029 38.5085C263.952 37.7725 264.028 37.0284 264.252 36.3232C264.477 35.6181 264.846 34.9672 265.335 34.4119C265.824 33.8566 266.423 33.4089 267.095 33.0972C267.766 32.7854 268.494 32.6164 269.234 32.6008C268.494 32.6164 267.766 32.7854 267.095 33.0972C266.423 33.4089 265.824 33.8566 265.335 34.4119C264.846 34.9672 264.477 35.6181 264.252 36.3232C264.028 37.0284 263.952 37.7725 264.029 38.5085ZM282.003 37.8944L282.041 37.8469L282.003 37.8944ZM285.673 37.832C285.75 37.8298 285.825 37.8112 285.894 37.7774C285.963 37.7436 286.024 37.6954 286.072 37.636C286.024 37.6954 285.963 37.7436 285.894 37.7774C285.825 37.8112 285.75 37.8298 285.673 37.832ZM282.066 37.832C282.069 37.8169 282.078 37.8037 282.091 37.7945C282.078 37.8037 282.069 37.8169 282.066 37.832ZM282.153 37.7321C282.161 37.7232 282.169 37.7148 282.178 37.7071C282.169 37.7148 282.161 37.7232 282.153 37.7321ZM282.19 37.6922C282.359 37.4865 282.568 37.3174 282.804 37.1953C283.04 37.0731 283.298 37.0005 283.564 36.9819C283.298 37.0005 283.04 37.0731 282.804 37.1953C282.568 37.3174 282.359 37.4865 282.19 37.6922ZM286.085 37.6273C286.089 37.6261 286.092 37.6236 286.094 37.6202C286.097 37.6167 286.098 37.6126 286.097 37.6085C286.098 37.6126 286.097 37.6167 286.094 37.6202C286.092 37.6236 286.089 37.6261 286.085 37.6273ZM286.11 37.5961C286.122 37.5961 286.122 37.5873 286.122 37.5836C286.122 37.5798 286.122 37.5923 286.11 37.5961ZM286.147 37.5586C286.235 37.4256 286.278 37.2684 286.272 37.1092C286.278 37.2684 286.235 37.4256 286.147 37.5586ZM284.737 37.4076L284.699 37.3801L284.737 37.4076ZM284.637 37.3477C284.63 37.3403 284.622 37.3351 284.612 37.3327C284.622 37.3351 284.63 37.3403 284.637 37.3477ZM302.299 35.8224C301.81 35.8212 301.323 35.7908 300.838 35.7312C301.323 35.7908 301.81 35.8212 302.299 35.8224ZM303.148 35.8224C303.152 35.8217 303.156 35.8217 303.16 35.8224C303.156 35.8217 303.152 35.8217 303.148 35.8224ZM303.385 35.8124C303.393 35.8136 303.401 35.8136 303.41 35.8124C303.401 35.8136 303.393 35.8136 303.385 35.8124ZM300.838 35.7787H300.826H300.838ZM305.294 35.6726C305.307 35.6726 305.307 35.6726 305.307 35.6726C305.307 35.6726 305.307 35.6726 305.294 35.6726ZM305.419 35.6551H305.457H305.419ZM305.519 35.6426H305.557H305.519ZM305.581 35.6339H305.619H305.581ZM305.644 35.6252L305.694 35.6189L305.644 35.6252ZM305.706 35.6164C305.727 35.615 305.748 35.6121 305.769 35.6077C305.748 35.6121 305.727 35.615 305.706 35.6164ZM305.781 35.6077C306.218 35.5478 306.642 35.4829 307.054 35.4267C306.642 35.4854 306.218 35.5515 305.781 35.6077ZM299.016 35.3668C298.364 35.131 297.753 34.794 297.206 34.3682C297.753 34.794 298.364 35.131 299.016 35.3668ZM296.944 34.1635C296.932 34.1523 296.919 34.1398 296.907 34.1298C296.919 34.1398 296.932 34.1523 296.944 34.1635ZM296.907 34.1248C294.173 31.8144 292.138 27.5494 289.542 27.5494C289.063 27.5853 288.596 27.7177 288.169 27.9386C287.742 28.1595 287.364 28.4644 287.058 28.835C286.5 29.3424 286.05 29.9582 285.737 30.6448C285.423 31.3315 285.253 32.0747 285.236 32.8292C285.253 32.0747 285.423 31.3315 285.737 30.6448C286.05 29.9582 286.5 29.3424 287.058 28.835C287.365 28.4648 287.742 28.1602 288.169 27.9395C288.596 27.7188 289.063 27.5865 289.542 27.5506C292.138 27.5506 294.173 31.8144 296.907 34.1248Z" fill="#B3C1CF"/>
<path fill-rule="evenodd" clip-rule="evenodd" d="M270.857 166.083C270.894 166.064 270.943 166.047 270.98 166.028C270.943 166.044 270.894 166.064 270.857 166.081" fill="#664647"/>
<path fill-rule="evenodd" clip-rule="evenodd" d="M267.112 159.787C272.891 158.524 279.482 156.51 282.091 153.547C282.078 153.557 282.065 153.569 282.053 153.581C282.041 153.593 282.041 153.603 282.028 153.613V153.62L281.991 153.648C281.987 153.661 281.978 153.673 281.966 153.681C281.942 153.699 281.92 153.721 281.903 153.746L281.829 153.815C281.816 153.826 281.816 153.839 281.804 153.85C281.791 153.861 281.791 153.85 281.791 153.85C281.787 153.862 281.778 153.873 281.766 153.879L281.691 153.943C281.687 153.957 281.678 153.969 281.666 153.977L281.629 154.01L281.479 154.143L281.404 154.209L281.367 154.241C281.192 154.394 281.005 154.544 280.805 154.694L280.767 154.725H280.755L280.718 154.756L280.68 154.786C280.662 154.792 280.645 154.802 280.63 154.815L280.593 154.846H280.58L280.543 154.875L280.505 154.905H280.493L280.455 154.932L280.418 154.961C280.406 154.961 280.406 154.961 280.406 154.961L280.368 154.988C280.364 154.989 280.36 154.989 280.356 154.988L280.318 155.017L280.281 155.043C280.268 155.043 280.268 155.043 280.268 155.043C280.268 155.043 280.243 155.059 280.231 155.069C280.227 155.068 280.222 155.068 280.218 155.069L280.181 155.093C280.163 155.098 280.146 155.107 280.131 155.118V155.125L280.094 155.148C280.081 155.148 280.081 155.148 280.081 155.157C280.068 155.163 280.055 155.171 280.044 155.179C280.044 155.179 280.031 155.179 280.031 155.187L279.994 155.208C279.994 155.208 279.981 155.214 279.981 155.218C279.968 155.224 279.956 155.231 279.944 155.239C279.944 155.239 279.931 155.247 279.931 155.249C279.926 155.25 279.921 155.253 279.917 155.256C279.912 155.26 279.909 155.264 279.906 155.269C279.898 155.272 279.889 155.276 279.881 155.28C279.876 155.281 279.871 155.283 279.867 155.287C279.862 155.29 279.859 155.294 279.856 155.299C279.848 155.302 279.839 155.306 279.831 155.31C279.819 155.31 279.819 155.323 279.806 155.329C279.798 155.332 279.79 155.336 279.781 155.34C279.769 155.34 279.769 155.351 279.756 155.358C279.744 155.364 279.744 155.366 279.732 155.371C279.729 155.376 279.725 155.379 279.721 155.382C279.716 155.385 279.712 155.387 279.707 155.388C279.698 155.392 279.69 155.396 279.682 155.4C279.676 155.409 279.667 155.415 279.657 155.418C279.65 155.425 279.641 155.43 279.632 155.431C279.629 155.436 279.625 155.439 279.621 155.442C279.617 155.444 279.612 155.446 279.607 155.446C279.6 155.454 279.591 155.458 279.582 155.46C279.576 155.469 279.567 155.475 279.557 155.477C279.544 155.477 279.544 155.486 279.532 155.49C279.526 155.498 279.517 155.504 279.507 155.506C279.498 155.51 279.49 155.515 279.482 155.521C279.474 155.526 279.466 155.531 279.457 155.535C279.444 155.541 279.444 155.545 279.432 155.551C279.419 155.557 279.419 155.56 279.407 155.565C279.402 155.566 279.397 155.568 279.393 155.571C279.388 155.574 279.385 155.578 279.382 155.582L279.357 155.592C279.344 155.598 279.332 155.606 279.32 155.614C279.32 155.614 279.32 155.613 279.307 155.621C279.295 155.628 279.282 155.633 279.27 155.642C279.257 155.651 279.257 155.642 279.257 155.65L279.22 155.672C279.216 155.673 279.211 155.673 279.207 155.672L279.17 155.696C279.157 155.696 279.157 155.696 279.157 155.696C279.157 155.696 279.12 155.711 279.107 155.72C279.09 155.727 279.074 155.736 279.057 155.746C279.039 155.752 279.022 155.761 279.008 155.773C278.983 155.782 278.97 155.791 278.945 155.801C275.19 157.636 271.212 158.976 267.112 159.787Z" fill="#7B91AD"/>
<path fill-rule="evenodd" clip-rule="evenodd" d="M270.67 163.532L270.819 163.467C289.392 155.416 291.327 144.565 290.741 134.824C290.141 137.707 289.442 140.296 288.706 141.261C288.281 141.791 287.747 142.224 287.139 142.529C286.532 142.834 285.865 143.005 285.186 143.029C284.875 146.219 283.772 149.281 281.978 151.938C281.978 151.938 281.978 151.945 281.966 151.948C281.962 151.962 281.953 151.974 281.941 151.983C281.941 151.99 281.928 151.998 281.928 152.005C281.925 152.006 281.921 152.008 281.919 152.012C281.917 152.015 281.916 152.019 281.916 152.022L281.878 152.059V152.07C281.866 152.084 281.853 152.097 281.841 152.109V152.117L281.804 152.156C281.791 152.17 281.779 152.185 281.766 152.197C281.762 152.2 281.757 152.203 281.754 152.206L281.716 152.246L281.679 152.288C279.145 155.18 272.742 157.145 267.112 158.377C268.248 159.938 269.446 161.663 270.67 163.521" fill="#49313E"/>
<path fill-rule="evenodd" clip-rule="evenodd" d="M283.438 146.057C284.106 146.027 284.759 145.847 285.349 145.531C285.938 145.216 286.45 144.773 286.846 144.234C287.835 142.136 288.496 139.898 288.806 137.6C288.681 135.576 288.469 133.605 288.269 131.706C286.983 119.52 271.344 114.001 271.131 105.054C270.919 96.1074 274.477 101.31 276.648 94.4061C278.82 87.5024 273.615 89.6705 275.126 84.3495C276.636 79.0285 282.54 81.028 287.271 77.9126C292.001 74.7971 283.588 71.8938 285.111 65.8763C286.634 59.8587 301.812 62.7558 301.15 56.2902C300.489 49.8246 296.994 54.5814 297.269 49.3815C297.543 44.1815 301.874 46.261 305.631 45.22C307.291 44.7619 307.266 40.2784 306.717 35.4068L305.457 35.5877H305.444L305.382 35.5977H305.369C305.357 35.5977 305.332 35.5977 305.319 35.6052H305.294H305.257C305.249 35.6039 305.24 35.6039 305.232 35.6052H305.194L305.132 35.6127H305.095H305.057H305.032C305.02 35.6127 304.995 35.6127 304.982 35.6214H304.97H304.92H304.907L304.857 35.6289H304.845C304.77 35.6401 304.683 35.6489 304.608 35.6601H304.595C304.579 35.6614 304.562 35.6639 304.545 35.6676H304.533L304.159 35.7088C304.142 35.71 304.125 35.71 304.109 35.7088H304.096H304.046H304.034C304.009 35.7088 303.996 35.7088 303.971 35.7088C303.884 35.7163 303.809 35.7263 303.722 35.7325H303.659H303.597C303.593 35.7331 303.588 35.7331 303.584 35.7325H303.534C303.447 35.7413 303.36 35.7463 303.285 35.7513H303.272H303.222C303.218 35.7501 303.214 35.7501 303.21 35.7513H303.16H303.135H303.085H303.073L302.898 35.7612H302.785C302.777 35.76 302.769 35.76 302.761 35.7612H302.686H302.648H302.561H302.473H302.087C302.074 35.7612 302.074 35.7612 302.074 35.7612H301.987C301.503 35.7605 301.019 35.7301 300.539 35.6701H300.526C299.926 35.5969 299.336 35.457 298.766 35.2532L298.729 35.2407C298.08 35.0055 297.474 34.6684 296.931 34.2422C296.908 34.2286 296.887 34.2114 296.869 34.191C296.857 34.191 296.857 34.191 296.857 34.191C296.819 34.1573 296.769 34.1224 296.732 34.0874C296.707 34.0724 296.694 34.0562 296.669 34.0412L296.632 34.0075C296.632 34.0075 296.632 34.0075 296.619 34.0075C293.911 31.6822 291.889 27.3921 289.305 27.3921C288.829 27.428 288.365 27.5611 287.942 27.7833C287.519 28.0055 287.146 28.312 286.846 28.684C286.287 29.1965 285.836 29.817 285.523 30.5082C285.21 31.1995 285.04 31.947 285.024 32.7057C285.024 34.6129 286.06 36.1682 286.06 37.0743C286.066 37.2351 286.023 37.3939 285.935 37.5287C285.922 37.5287 285.922 37.5374 285.922 37.5424C285.922 37.5474 285.91 37.5499 285.91 37.5524C285.907 37.5572 285.902 37.5613 285.898 37.5648C285.898 37.5648 285.898 37.5749 285.885 37.5786C285.873 37.5823 285.873 37.5911 285.873 37.5973C285.873 37.6035 285.86 37.6048 285.86 37.6098C285.811 37.6684 285.75 37.7161 285.681 37.7498C285.612 37.7836 285.537 37.8026 285.461 37.8058H285.436C285.106 37.7373 284.797 37.59 284.537 37.3764C284.524 37.3664 284.5 37.3577 284.487 37.3489L284.45 37.3265C284.446 37.3224 284.442 37.319 284.437 37.3165C284.425 37.3165 284.425 37.3053 284.412 37.3003L284.375 37.2778C284.078 37.08 283.733 36.9661 283.376 36.9483H283.364C283.1 36.9691 282.844 37.0433 282.61 37.1662C282.376 37.2892 282.17 37.4583 282.003 37.6635C281.991 37.6635 281.991 37.6722 281.991 37.6784C281.985 37.6804 281.98 37.6837 281.975 37.688C281.971 37.6924 281.968 37.6976 281.966 37.7034C281.941 37.7234 281.928 37.7446 281.903 37.7658L281.866 37.8045C281.866 37.8045 281.853 37.817 281.853 37.8232C281.853 37.8295 281.828 37.8532 281.816 37.8707L281.778 37.9131C279.869 40.1449 280.318 42.3966 277.497 42.3991C277.397 42.3991 277.31 42.3991 277.21 42.3916H277.185C273.99 42.2243 274.589 36.5963 271.88 33.6992C271.528 33.3261 271.102 33.0305 270.629 32.8315C270.156 32.6325 269.647 32.5344 269.134 32.5434H269.109C268.37 32.5666 267.644 32.7423 266.975 33.0596C266.307 33.3768 265.712 33.8287 265.227 34.387C264.741 34.9452 264.377 35.5977 264.156 36.3035C263.935 37.0093 263.862 37.7532 263.942 38.4885C263.952 38.5255 263.956 38.5638 263.954 38.6021C264.603 43.4201 270.47 43.0744 270.47 46.231V46.4033C270.198 49.1664 268.875 51.7196 266.775 53.5354C265.365 54.7624 262.219 53.5355 261.358 55.0982C261.346 55.1144 261.333 55.1344 261.321 55.1531C261.172 55.5314 261.104 55.9365 261.121 56.3426C261.121 57.8929 261.695 60.1745 261.695 61.6786C261.748 62.1491 261.628 62.6227 261.358 63.0117C261.345 63.0237 261.332 63.0366 261.321 63.0504C261.308 63.0504 261.308 63.0591 261.308 63.0616C261.139 63.2586 260.93 63.4185 260.696 63.5313C260.462 63.644 260.207 63.7072 259.948 63.7169H259.935C259.898 63.7169 259.848 63.7169 259.81 63.7169C258.987 63.6657 257.838 63.0928 255.941 61.6774C255.932 61.6733 255.924 61.6687 255.916 61.6636C255.854 61.6087 255.766 61.5513 255.691 61.4939C255.654 61.4602 255.604 61.4252 255.554 61.389C255.493 61.3475 255.434 61.3016 255.379 61.2517C255.335 61.2232 255.294 61.1915 255.254 61.1569C255.229 61.1344 255.192 61.1132 255.167 61.0919C255.142 61.0707 255.105 61.037 255.067 61.0121C254.895 60.8796 254.716 60.7571 254.531 60.6451C254.398 60.5708 254.26 60.5049 254.119 60.4479C253.743 60.2885 253.34 60.2057 252.933 60.2045C249.737 60.2045 247.353 65.4744 249.588 67.5364C249.588 67.5364 249.588 67.5364 249.6 67.5438C249.605 67.549 249.609 67.5544 249.613 67.5601L249.65 67.5875C252.234 69.843 257.676 73.0409 257.688 76.7492C257.69 77.0795 257.648 77.4084 257.564 77.7278C257.45 78.1804 257.237 78.6018 256.939 78.961C254.955 81.2614 249.862 79.4928 249.101 82.5221C249.05 82.7399 249.025 82.9627 249.026 83.1862C249.014 86.1955 253.457 90 253.532 91.8398V91.8923C253.538 92.0937 253.466 92.2897 253.332 92.4402C253.328 92.4411 253.325 92.4434 253.323 92.4466C253.32 92.4498 253.319 92.4538 253.32 92.4577C252.817 92.8278 252.192 92.9916 251.572 92.9158H251.535C250.998 92.9158 250.386 92.8646 249.762 92.8147C249.138 92.7647 248.477 92.7123 247.853 92.7123C246.255 92.7123 244.882 93.0543 244.67 94.6246C244.67 94.6757 244.657 94.7282 244.657 94.7818C244.647 94.8646 244.643 94.948 244.645 95.0314C244.645 98.6187 250.986 100.898 250.986 104.234C250.985 104.391 250.973 104.548 250.948 104.702C250.362 107.991 245.531 108.427 245.518 110.796C245.529 111.117 245.605 111.432 245.743 111.722C245.743 111.727 245.743 111.732 245.746 111.737C245.748 111.741 245.751 111.745 245.756 111.747C246.218 112.777 247.366 113.023 248.739 113.023C249.351 113.023 250.024 112.973 250.686 112.922L250.823 112.911C251.447 112.863 252.059 112.821 252.633 112.818H252.658C254.231 112.818 255.516 113.149 255.804 114.623C255.814 114.644 255.818 114.667 255.816 114.69V114.714C255.816 114.72 255.829 114.725 255.829 114.732C255.853 114.912 255.865 115.095 255.866 115.277C255.879 118.482 250.823 117.999 250.823 120.219C250.827 120.439 250.869 120.656 250.948 120.861C251.12 121.304 251.437 121.675 251.848 121.914C252.258 122.152 252.738 122.244 253.207 122.175C253.926 122.151 254.641 122.059 255.342 121.9C255.916 121.761 256.5 121.669 257.089 121.625C257.514 121.625 257.738 121.75 257.688 122.133C257.684 122.138 257.68 122.144 257.678 122.15C257.676 122.156 257.675 122.163 257.676 122.17C257.676 122.175 257.676 122.18 257.673 122.185C257.671 122.19 257.668 122.194 257.664 122.197C257.658 122.248 257.645 122.299 257.626 122.347C257.164 124.087 255.854 124.012 253.008 125.093C252.995 125.093 252.995 125.093 252.995 125.093C252.978 125.097 252.961 125.102 252.945 125.11C252.945 125.11 252.945 125.11 252.933 125.11L252.858 125.143C252.858 125.143 252.845 125.143 252.845 125.15L252.808 125.165C250.299 126.324 252.883 129.549 254.98 129.659H255.08H255.179H255.192C255.292 129.659 255.417 129.641 255.566 129.626C255.591 129.626 255.616 129.626 255.641 129.619C260.071 128.94 264.533 128.493 269.01 128.278C271.294 128.278 272.966 128.575 273.066 129.435C273.076 129.507 273.081 129.579 273.079 129.651C273.091 131.721 269.421 132.397 269.421 133.563C269.443 133.721 269.498 133.873 269.585 134.007C269.671 134.142 269.786 134.255 269.921 134.341C270.259 134.651 270.697 134.833 271.156 134.852C271.677 134.808 272.172 134.61 272.579 134.282C272.932 133.983 273.359 133.785 273.815 133.709C273.852 133.709 273.877 133.709 273.915 133.709C274.18 133.758 274.42 133.9 274.589 134.111C274.589 134.111 274.589 134.111 274.601 134.118C274.601 134.122 274.602 134.126 274.604 134.13C274.607 134.133 274.61 134.135 274.614 134.136V134.147C275.875 135.669 271.656 138.691 274.289 138.691C274.364 138.691 274.452 138.691 274.551 138.682H274.589C275.613 138.604 276.588 138.214 277.385 137.566C278.333 136.852 279.032 136.068 280.031 136.059H280.043C280.313 136.065 280.579 136.117 280.83 136.214C281.206 136.289 281.543 136.495 281.782 136.794C282.022 137.092 282.149 137.466 282.14 137.849C281.85 139.505 281.449 141.14 280.942 142.743C280.871 143.04 280.833 143.343 280.83 143.647C280.816 143.97 280.872 144.291 280.995 144.59C281.117 144.888 281.303 145.157 281.539 145.377C281.775 145.597 282.056 145.763 282.362 145.864C282.668 145.965 282.993 145.999 283.314 145.963H283.438" fill="#252F3E"/>
<path fill-rule="evenodd" clip-rule="evenodd" d="M254.243 293.344C247.428 277.43 230.104 239.947 226.384 224.722C221.965 206.648 218.108 176.542 245.444 169.272C246.111 169.091 246.799 168.996 247.491 168.99C250.05 168.99 252.072 170.433 253.757 172.85C256.956 170.44 260.498 168.524 264.266 167.166C266.189 166.479 267.961 165.768 269.609 165.032C268.41 163.14 267.237 161.383 266.126 159.79H266.114L248.764 162.078C248.764 162.078 223.151 167.169 218.895 198.458C218.577 200.905 218.423 203.37 218.433 205.838C218.445 228.287 229.592 260.174 238.167 289.399C243.454 290.991 248.82 292.307 254.243 293.344Z" fill="#B3C1CF"/>
<path fill-rule="evenodd" clip-rule="evenodd" d="M287.208 426.9C288.516 426.892 289.805 426.587 290.978 426.009V418.507L293.849 423.456C294.822 421.44 294.61 418.522 294.373 415.666H275.85C276.072 416.532 276.372 417.375 276.748 418.186C279.731 424.587 283.663 426.9 287.208 426.9Z" fill="#664647"/>
<path fill-rule="evenodd" clip-rule="evenodd" d="M253.769 304.577C254.786 303.009 255.908 301.51 257.127 300.093C256.74 298.892 255.816 296.635 254.518 293.61C248.994 292.557 243.528 291.219 238.142 289.599L237.156 299.136C242.466 301.582 248.041 303.408 253.769 304.577Z" fill="#252F3E"/>
<path fill-rule="evenodd" clip-rule="evenodd" d="M287.083 396.943C286.265 394.07 285.06 391.322 283.501 388.774C282.99 388.708 282.505 388.512 282.091 388.206C286.921 395.945 287.083 396.943 287.083 396.943Z" fill="#FF8C00"/>
<path fill-rule="evenodd" clip-rule="evenodd" d="M286.372 396.943C286.459 396.913 288.881 396.07 288.219 388.749C288.205 388.656 288.196 388.563 288.194 388.469C287.633 388.498 287.108 388.512 286.597 388.512C285.502 388.54 284.409 388.437 283.339 388.206C284.684 390.991 285.702 393.923 286.372 396.943Z" fill="#664647"/>
<path fill-rule="evenodd" clip-rule="evenodd" d="M287.795 386.958C288.369 386.958 288.956 386.944 289.58 386.915C288.906 380.196 287.283 368.333 280.131 350.697C276.511 351.733 273.154 352.694 270.308 353.5C274.564 367.23 279.744 380.285 282.64 385.668C282.702 385.786 282.765 385.903 282.827 386.018C283.205 386.346 283.668 386.563 284.163 386.642C285.358 386.879 286.576 386.985 287.795 386.957V386.958ZM263.567 325.096L269.06 323.859C261.57 301.473 265.802 294.777 259.398 285.149C221.803 228.691 232.5 188.491 254.231 172.377C252.533 169.963 250.486 168.524 247.903 168.524C247.207 168.529 246.515 168.623 245.843 168.804C218.221 176.065 222.115 206.113 226.584 224.154C230.341 239.353 247.84 276.768 254.73 292.652C256.016 295.624 256.927 297.842 257.314 299.018C257.314 299.018 260.684 307.88 263.567 325.094" fill="#AAB9CA"/>
<path fill-rule="evenodd" clip-rule="evenodd" d="M303.934 268.38C304.551 268.38 305.154 268.197 305.667 267.854C306.181 267.511 306.581 267.024 306.817 266.454C307.053 265.883 307.115 265.256 306.994 264.651C306.874 264.045 306.577 263.489 306.14 263.053C305.704 262.617 305.148 262.319 304.543 262.199C303.937 262.079 303.31 262.14 302.74 262.376C302.17 262.613 301.682 263.013 301.339 263.526C300.997 264.039 300.813 264.642 300.813 265.259C300.813 266.087 301.142 266.881 301.727 267.466C302.313 268.051 303.106 268.38 303.934 268.38Z" fill="#B3C1CF"/>
<path fill-rule="evenodd" clip-rule="evenodd" d="M303.934 278.365C304.551 278.365 305.154 278.182 305.667 277.839C306.181 277.497 306.581 277.009 306.817 276.439C307.053 275.869 307.115 275.241 306.994 274.636C306.874 274.031 306.577 273.475 306.14 273.038C305.704 272.602 305.148 272.305 304.543 272.184C303.937 272.064 303.31 272.126 302.74 272.362C302.17 272.598 301.682 272.998 301.339 273.511C300.997 274.024 300.813 274.628 300.813 275.245C300.813 276.072 301.142 276.866 301.727 277.451C302.313 278.037 303.106 278.365 303.934 278.365Z" fill="#B3C1CF"/>
<path fill-rule="evenodd" clip-rule="evenodd" d="M303.934 289.599C304.551 289.599 305.154 289.416 305.667 289.073C306.181 288.73 306.581 288.243 306.817 287.673C307.053 287.103 307.115 286.475 306.994 285.87C306.874 285.265 306.577 284.709 306.14 284.272C305.704 283.836 305.148 283.538 304.543 283.418C303.937 283.298 303.31 283.359 302.74 283.596C302.17 283.832 301.682 284.232 301.339 284.745C300.997 285.258 300.813 285.861 300.813 286.479C300.813 287.306 301.142 288.1 301.727 288.685C302.313 289.27 303.106 289.599 303.934 289.599Z" fill="#B3C1CF"/>
<path fill-rule="evenodd" clip-rule="evenodd" d="M3.79955 329.541C3.04408 329.537 2.30491 329.761 1.678 330.182C1.05108 330.604 0.565345 331.204 0.283841 331.905C0.00233625 332.606 -0.0619627 333.376 0.0993244 334.114C0.260612 334.852 0.64008 335.524 1.18837 336.044C7.89363 342.324 17.2775 352.584 21.8146 364.293C29.3162 383.649 58.4389 483.068 58.4389 483.068L62.4095 329.541H3.79955Z" fill="#F4F6F8"/>
<path fill-rule="evenodd" clip-rule="evenodd" d="M101.852 269.628L138.911 276.031L143.08 273.243L156.885 288.576L182.236 412.595L131.534 430.644L92.366 275.346L101.852 269.628Z" fill="#FFFFFE"/>
<path fill-rule="evenodd" clip-rule="evenodd" d="M332.018 640.052L349.118 627.047L354.535 628.065C367.105 628.969 381.896 622.183 393.816 616.075C405.736 609.968 408.158 614.493 408.158 614.493L340.843 656.566L332.018 640.052Z" fill="#FF8C00"/>
<path fill-rule="evenodd" clip-rule="evenodd" d="M346.497 659.063L408.158 619.021V614.128L340.755 655.504L346.497 659.064" fill="#D9E2E9"/>
<path fill-rule="evenodd" clip-rule="evenodd" d="M349.493 625.439L345.211 617.873L327.025 629.2L332.505 637.844L349.493 625.439Z" fill="#D9E2E9"/>
<path fill-rule="evenodd" clip-rule="evenodd" d="M199.623 630.354C199.623 630.354 221.591 630.503 224.961 636.069C228.331 641.634 254.243 648.099 265.814 650.055C277.385 652.011 275.775 655.318 275.775 655.318L195.966 653.063L199.623 630.354Z" fill="#FF8C00"/>
<path fill-rule="evenodd" clip-rule="evenodd" d="M319.536 314.131L334.452 310.818L339.507 332.677L320.61 337.03L319.536 314.131Z" fill="#FFFFFE"/>
<path fill-rule="evenodd" clip-rule="evenodd" d="M197.8 657.815H272.33L275.85 653.483L195.966 651.574L197.8 657.815Z" fill="#D9E2E9"/>
<path fill-rule="evenodd" clip-rule="evenodd" d="M332.018 309.935L336.924 330.789C336.924 330.789 346.222 330.766 349.268 330.618C352.314 330.471 360.889 330.351 366.293 324.395C371.973 318.128 365.045 305.263 370.849 302.579C374.022 301.098 377.059 299.34 379.924 297.325C383.518 295.315 382.045 291.993 377.689 293.667C374.893 294.747 364.895 298.081 359.029 300.715C353.162 303.35 349.468 296.83 350.691 293.009C352.039 288.784 346.622 283.806 345.449 286.733C344.338 289.471 346.946 297.079 342.478 303.687C341.276 305.409 339.722 306.856 337.919 307.932C336.115 309.008 334.104 309.688 332.018 309.928" fill="#FEB18A"/>
<path fill-rule="evenodd" clip-rule="evenodd" d="M147.286 265.883L168.156 370.731L169.754 314.64C169.766 314.164 169.633 313.695 169.372 313.297C169.111 312.898 168.735 312.589 168.293 312.41L160.043 309.131L167.37 306.672C167.89 306.495 168.331 306.139 168.614 305.669C168.897 305.198 169.005 304.642 168.917 304.099L164.649 277.106L147.286 265.883Z" fill="#21406D"/>
<path fill-rule="evenodd" clip-rule="evenodd" d="M107.619 260.891L101.103 270.876C114.035 287.029 134.804 295.84 134.804 295.84V280.274C122.21 278.843 107.619 260.891 107.619 260.891Z" fill="#D9E2E9"/>
<path fill-rule="evenodd" clip-rule="evenodd" d="M108.655 316.138C109.113 316.69 109.719 317.101 110.402 317.322C111.085 317.543 111.817 317.565 112.512 317.386L124.994 314.167L119.913 322.205C119.484 322.885 119.277 323.681 119.322 324.484C119.367 325.287 119.661 326.055 120.163 326.683C129.687 338.536 139.797 376.972 139.797 376.972C139.797 376.972 138.836 335.046 132.245 317.985C124.557 298.077 103.525 264.637 103.525 264.637L83.017 276.413C82.5487 276.686 82.1443 277.056 81.8311 277.498C81.518 277.941 81.3033 278.445 81.2015 278.977C81.0998 279.51 81.1134 280.058 81.2414 280.584C81.3694 281.111 81.6089 281.604 81.9436 282.03L108.655 316.138Z" fill="#21406D"/>
<path fill-rule="evenodd" clip-rule="evenodd" d="M139.797 289.584L151.855 388.206L167.257 382.499L146.55 287.103L139.797 289.584Z" fill="#233144"/>
<path fill-rule="evenodd" clip-rule="evenodd" d="M227.17 393.199V406.516C227.17 406.516 250.686 407.603 263.518 406.248C276.349 404.894 272.941 400.332 272.941 400.332L227.17 393.199Z" fill="#FEB18A"/>
<path fill-rule="evenodd" clip-rule="evenodd" d="M134.804 281.053V289.849C142.306 293.679 146.038 285.323 146.038 285.323L139.597 279.896C138.778 279.555 137.873 279.485 137.011 279.694C136.149 279.903 135.376 280.381 134.804 281.059" fill="#233144"/>
<path fill-rule="evenodd" clip-rule="evenodd" d="M143.716 260.891C145.114 268.301 141.045 279.476 141.045 279.476L150.781 288.351C152.242 277.192 146.799 266.671 146.799 266.671L143.716 260.891Z" fill="#FFFFFE"/>
<path fill-rule="evenodd" clip-rule="evenodd" d="M334.515 330.789C334.515 330.296 334.368 329.813 334.094 329.402C333.82 328.992 333.43 328.672 332.973 328.483C332.517 328.294 332.015 328.245 331.531 328.341C331.047 328.437 330.602 328.675 330.253 329.024C329.904 329.373 329.666 329.818 329.57 330.302C329.473 330.786 329.523 331.288 329.712 331.745C329.901 332.201 330.221 332.591 330.631 332.865C331.042 333.139 331.524 333.286 332.018 333.286C332.68 333.286 333.315 333.023 333.783 332.554C334.251 332.086 334.515 331.451 334.515 330.789Z" fill="#203253"/>
<path fill-rule="evenodd" clip-rule="evenodd" d="M101.852 269.628L138.911 276.031L143.08 273.243L156.885 288.576L182.236 412.595L131.534 430.644L92.366 275.346L101.852 269.628Z" fill="#FFFFFE"/>
<path fill-rule="evenodd" clip-rule="evenodd" d="M165.71 405.681L143.542 422.476L227.757 482.583L324.829 632.851L346.996 618.708C346.996 618.708 291.589 475.512 285.61 460.706C279.632 445.9 264.99 440.154 264.99 440.154L165.71 405.681Z" fill="#102D76"/>
<path fill-rule="evenodd" clip-rule="evenodd" d="M167.207 196.524C167.207 196.524 168.231 224.087 160.929 233.52C158.008 237.285 152.354 237.783 146.6 237.025C143.891 246.091 140.596 259.524 143.404 263.737C146.325 268.105 132.595 288.352 132.595 288.352L104.848 268.6L110.54 239.267L106.158 210.821L124.607 207.95L121.199 189.744L167.207 196.524Z" fill="#FEB18A"/>
<path fill-rule="evenodd" clip-rule="evenodd" d="M319.998 314.957L325.777 340.275C325.777 340.275 266.626 357.384 262.195 358.564C257.763 359.744 251.011 363.831 233.524 354.409C224.412 349.501 209.908 342.519 198.1 336.954C196.766 336.323 195.301 336.019 193.826 336.069C192.352 336.118 190.91 336.519 189.622 337.239C188.333 337.958 187.236 338.975 186.42 340.204C185.604 341.434 185.094 342.841 184.932 344.307L178.466 405.054C178.466 405.054 198.25 424.708 204.254 429.565C204.254 429.565 193.369 439.725 188.252 440.607C183.134 441.49 172.25 412.343 172.25 412.343L162.027 317.164L156.024 305.019L160.692 275.869L190.311 293.736L251.011 330.557L319.998 314.955" fill="#102E75"/>
<path fill-rule="evenodd" clip-rule="evenodd" d="M120.712 273.373C125.257 270.768 128.667 266.562 130.273 261.576C131.455 258.381 132.178 255.034 132.42 251.635C128.052 248.978 124.157 244.406 122.759 236.605C119.701 219.368 121.012 222.637 119.701 217.882C119.052 215.573 117.654 214.35 116.294 214.35C114.846 214.35 113.423 215.723 112.974 218.625C112.1 224.273 111.8 230.958 116.194 233.039C120.587 235.119 119.402 241.062 119.402 241.062C118.85 244.041 117.919 246.938 116.631 249.681C116.281 250.295 115.919 250.929 115.545 251.499C120.75 261.184 123.933 268.045 119.901 272.702C120.163 272.926 120.438 273.149 120.712 273.373ZM111.089 252.215L111.101 252.157L111.089 252.215ZM134.904 230.944C137.588 227.608 140.396 224.406 139.348 220.192C137.638 213.382 139.385 207.397 146.787 207.397C148.527 207.429 150.255 207.684 151.929 208.156C155.241 209.06 158.657 209.526 162.09 209.544C164.637 209.568 167.176 209.255 169.641 208.613C169.704 206.89 169.741 205.315 169.754 203.965C167.271 204.703 164.692 205.065 162.102 205.039C155.909 204.855 149.805 203.516 144.103 201.091C138.848 199.028 134.942 197.233 132.121 197.233C131.118 197.193 130.132 197.507 129.337 198.119C126.566 200.35 125.98 205.401 127.44 211.791C128.9 218.18 134.892 222.489 134.605 227.839C134.51 228.883 134.612 229.937 134.904 230.944Z" fill="#BC8370"/>
<path fill-rule="evenodd" clip-rule="evenodd" d="M117.904 238.219C117.904 238.219 119.077 232.352 114.684 230.301C110.29 228.251 110.577 221.654 111.451 216.082C112.325 210.51 116.88 210.659 118.203 215.349C119.527 220.04 118.204 216.816 121.274 233.822C124.345 250.829 139.747 252.296 145.302 252.148C150.856 252.001 164.748 245.97 164.748 237.467C164.748 228.965 163.563 226.934 156.523 226.201C149.483 225.468 143.554 230.452 139.597 230.746C135.641 231.039 132.857 230.452 133.157 225.175C133.456 219.898 127.44 215.646 125.967 209.343C124.494 203.04 125.093 198.056 127.877 195.855C130.66 193.655 135.391 195.966 142.681 198.788C167.52 208.399 178.641 198.459 181.661 188.108C184.732 177.562 184.982 165.005 173.823 163.738C166.683 162.93 163.425 164.679 161.054 166.427C158.607 168.235 157.122 170.046 153.278 169.023C150.307 168.235 145.04 165.804 137.401 166.538C127.889 167.45 107.644 172.694 103.837 182.809C101.266 189.61 97.8206 182.809 97.3838 202.892C96.9019 217.659 100.234 232.301 107.057 245.406C111.314 253.469 113.361 249.802 115.12 246.725C116.415 244.024 117.351 241.166 117.904 238.222" fill="#233144"/>
<path fill-rule="evenodd" clip-rule="evenodd" d="M332.018 640.052L349.118 627.047L354.535 628.065C367.105 628.969 381.896 622.183 393.816 616.075C405.736 609.968 408.158 614.493 408.158 614.493L340.843 656.566L332.018 640.052Z" fill="#FF8C00"/>
<path fill-rule="evenodd" clip-rule="evenodd" d="M346.497 659.063L408.158 619.021V614.128L340.755 655.504L346.497 659.064" fill="#D9E2E9"/>
<path fill-rule="evenodd" clip-rule="evenodd" d="M349.493 625.439L345.211 617.873L327.025 629.2L332.505 637.844L349.493 625.439Z" fill="#FFFFFE"/>
<path fill-rule="evenodd" clip-rule="evenodd" d="M243.297 475.282C243.777 470.073 242.473 464.854 239.6 460.482C236.727 456.11 232.455 452.844 227.482 451.217L141.944 423.155L58.6649 484.641L77.2055 498.467L181.387 496.702L201.096 639.092H226.996C226.996 639.092 238.903 522.965 243.297 475.282Z" fill="#153B99"/>
<path fill-rule="evenodd" clip-rule="evenodd" d="M92.6031 270.876L126.641 312.084L131.472 332.11L154.775 444.64C154.775 444.64 118.565 471.309 101.852 480.392C85.1389 489.475 65.1966 494.166 57.866 481.858C50.5354 469.549 46.7572 440.792 45.5514 419.437C43.1275 376.48 48.3374 331.964 52.7348 313.062C57.1321 294.161 63.7925 287.958 72.2452 282.926C82.1433 277.035 92.6031 270.876 92.6031 270.876Z" fill="#153B99"/>
<path fill-rule="evenodd" clip-rule="evenodd" d="M199.623 630.354C199.623 630.354 221.591 630.503 224.961 636.069C228.331 641.634 254.243 648.099 265.814 650.055C277.385 652.011 275.775 655.318 275.775 655.318L195.966 653.063L199.623 630.354Z" fill="#FF8C00"/>
<path fill-rule="evenodd" clip-rule="evenodd" d="M147.286 265.883L168.156 370.731L169.754 314.64C169.766 314.164 169.633 313.695 169.372 313.297C169.111 312.898 168.735 312.589 168.293 312.41L160.043 309.131L167.37 306.672C167.89 306.495 168.331 306.139 168.614 305.669C168.897 305.198 169.005 304.642 168.917 304.099L164.649 277.106L147.286 265.883Z" fill="#021D63"/>
<path fill-rule="evenodd" clip-rule="evenodd" d="M107.619 260.891L101.103 270.876C114.035 287.029 134.804 295.84 134.804 295.84V280.274C122.21 278.843 107.619 260.891 107.619 260.891Z" fill="#D9E2E9"/>
<path fill-rule="evenodd" clip-rule="evenodd" d="M108.655 316.138C109.113 316.69 109.719 317.101 110.402 317.322C111.085 317.543 111.817 317.565 112.512 317.386L124.994 314.167L119.913 322.205C119.484 322.885 119.277 323.681 119.322 324.484C119.367 325.287 119.661 326.055 120.163 326.683C129.687 338.536 139.797 376.972 139.797 376.972C139.797 376.972 138.836 335.046 132.245 317.985C124.557 298.077 103.525 264.637 103.525 264.637L83.017 276.413C82.5487 276.686 82.1443 277.056 81.8311 277.498C81.518 277.941 81.3033 278.445 81.2015 278.977C81.0998 279.51 81.1134 280.058 81.2414 280.584C81.3694 281.111 81.6089 281.604 81.9436 282.03L108.655 316.138Z" fill="#0F3080"/>
<path fill-rule="evenodd" clip-rule="evenodd" d="M227.17 389.217L215.949 388.206L215.937 405.556L226.971 405.687L227.17 389.223" fill="#FFFFFE"/>
<path fill-rule="evenodd" clip-rule="evenodd" d="M139.797 289.584L146.637 287.103L166.009 383.08L152.004 388.206C152.004 388.206 144.977 362.085 145.751 337.654C146.525 313.224 139.797 289.587 139.797 289.587" fill="#FF8C00"/>
<path fill-rule="evenodd" clip-rule="evenodd" d="M135.553 378.119C125.443 345.791 94.2132 305.299 86.9612 296.488C74.0849 280.853 50.0374 310.037 61.8265 335.451C68.8002 350.488 95.6237 384.38 104.311 397.135C112.998 409.891 117.866 406.524 117.866 406.524L217.185 405.056V387.457L135.553 378.119Z" fill="#102E75"/>
<path fill-rule="evenodd" clip-rule="evenodd" d="M134.804 280.547V289.861C142.306 293.618 146.038 285.423 146.038 285.423L139.011 279.614C137.716 280.291 136.264 280.613 134.804 280.547Z" fill="#FF8C00"/>
<path fill-rule="evenodd" clip-rule="evenodd" d="M144.103 260.891C144.628 268.149 141.045 279.356 141.045 279.356L150.781 288.351C152.242 277.042 146.799 266.383 146.799 266.383L144.103 260.891Z" fill="#FFFFFE"/>
<path fill-rule="evenodd" clip-rule="evenodd" d="M77.3877 499.295L64.1569 489.126L77.3877 499.295ZM61.9439 487.424L58.6649 484.902L61.9439 487.423V487.424ZM58.6649 484.902L59.4338 484.316L58.6649 484.902Z" fill="#B3C1CF"/>
<path fill-rule="evenodd" clip-rule="evenodd" d="M230.915 426.9L223.426 424.403L230.915 426.9Z" fill="#B3C1CF"/>
<path fill-rule="evenodd" clip-rule="evenodd" d="M244.645 431.893L229.667 426.9L244.645 431.893Z" fill="#8B1034"/>
<path fill-rule="evenodd" clip-rule="evenodd" d="M149.957 416.608L149.783 415.666H151.031L149.957 416.608Z" fill="#B3C1CF"/>
<path fill-rule="evenodd" clip-rule="evenodd" d="M221.778 448.119C223.923 443.464 227.303 439.486 231.55 436.616C235.797 433.747 240.749 432.096 245.868 431.843H245.893L231.364 426.879L222.814 423.957L198.549 415.666H190.736C195.903 420.579 201.283 425.593 203.954 427.722C203.954 427.722 195.591 435.42 190.087 437.914L221.778 448.119ZM184.333 436.059C180.713 431.424 176.394 421.627 173.935 415.666H151.305L149.783 416.801L151.617 425.526L184.333 436.059Z" fill="#0F3080"/>
<path fill-rule="evenodd" clip-rule="evenodd" d="M189.625 438.133C195.117 435.617 203.455 427.843 203.455 427.843C200.796 425.693 195.416 420.629 190.274 415.667H173.498C175.957 421.689 180.263 431.582 183.871 436.262L189.625 438.135" fill="#0F3080"/>
<path fill-rule="evenodd" clip-rule="evenodd" d="M103.6 264.635L106.795 259.498L108.592 249.657L106.795 259.499L103.6 264.635Z" fill="#B3C1CF"/>
<path fill-rule="evenodd" clip-rule="evenodd" d="M117.829 270.876C122.235 266.217 118.753 259.349 113.061 249.657C112.793 250.139 112.417 250.552 111.962 250.864C111.507 251.175 110.986 251.377 110.44 251.453C109.572 251.379 108.767 250.971 108.193 250.316L108.18 250.375L106.096 260.279L106.146 260.213C109.739 264.084 113.646 267.651 117.829 270.876Z" fill="#8C645F"/>
<path fill-rule="evenodd" clip-rule="evenodd" d="M103.6 183.503C107.419 173.418 127.752 168.188 137.301 167.277C127.74 168.007 107.419 173.416 103.6 183.503Z" fill="#B3C1CF"/>
<path fill-rule="evenodd" clip-rule="evenodd" d="M111.551 250.905C112.06 250.822 112.542 250.618 112.956 250.311C113.371 250.003 113.706 249.602 113.935 249.139C112.399 246.331 110.702 243.273 108.954 239.97C101.315 225.5 104.835 202.844 111.164 190.886C119.889 174.436 145.027 186.999 148.534 168.653C145.347 167.829 142.077 167.368 138.786 167.28C138.237 167.28 137.688 167.299 137.163 167.34C127.715 168.251 107.581 173.484 103.799 183.577C101.253 190.363 97.8206 183.577 97.3837 203.616C97.3712 204.322 97.3587 205.018 97.3587 205.708C97.3587 207.166 97.3962 208.592 97.4586 209.987C97.9273 222.562 101.184 234.875 106.995 246.037C107.661 247.389 108.504 248.645 109.504 249.773V249.782C109.752 250.097 110.061 250.358 110.413 250.551C110.765 250.744 111.152 250.865 111.551 250.905Z" fill="#0F3080"/>
<path fill-rule="evenodd" clip-rule="evenodd" d="M77.2142 498.047L97.3712 497.703C93.9054 494.961 90.7495 491.849 87.9598 488.422C83.6203 489.864 79.0898 490.65 74.5181 490.753C70.88 490.878 67.2781 489.997 64.1082 488.207L77.2142 498.047ZM61.9114 486.563C60.9512 485.679 60.1151 484.669 59.4262 483.56L58.6649 484.128L61.9101 486.563H61.9114ZM222.178 448.682L190.673 438.278L184.944 436.388L152.429 425.654L155.312 439.674C175.246 440.58 196.814 440.309 222.178 448.686" fill="#0F3080"/>
<path fill-rule="evenodd" clip-rule="evenodd" d="M73.0914 489.309C77.6419 489.207 82.152 488.43 86.4746 487.004C73.1751 471.016 64.9195 447.768 64.0321 438.134C63.0597 427.599 64.0695 410.355 74.7952 410.355C78.6184 410.355 83.6823 412.547 90.3227 418.014C111.355 435.329 131.438 437.775 153.531 438.774L148.838 416.107L148.601 414.962H101.494C100.027 414.963 98.5743 414.676 97.2188 414.115C95.8632 413.554 94.6315 412.732 93.594 411.695C92.5564 410.658 91.7335 409.427 91.1722 408.072C90.6109 406.717 90.3222 405.264 90.3227 403.797H110.83L110.718 403.71C108.5 402.181 106.632 400.199 105.239 397.893C104.802 397.299 104.352 396.664 103.89 395.981C103.716 395.721 103.529 395.45 103.341 395.173C101.182 392.148 97.7993 387.489 93.9299 382.167C88.1134 374.255 81.161 364.865 75.0698 356.094C74.7865 355.696 74.5032 355.287 74.2211 354.866C68.7141 346.885 64.0046 339.504 61.6231 334.345C54.4235 318.751 60.6632 301.736 69.5179 294.543C69.5928 294.453 69.6702 294.366 69.7476 294.276C73.6101 289.992 78.2279 286.455 83.3703 283.842L81.8475 281.93C81.3047 281.24 81.0191 280.383 81.0396 279.505C81.0601 278.627 81.3855 277.784 81.9599 277.12C78.9355 278.916 75.5591 280.918 72.2401 282.894C63.7912 287.927 57.1371 294.128 52.736 313.035C49.1162 328.616 44.9373 361.603 44.9385 396.775C44.9385 404.275 45.1295 411.878 45.5552 419.428C46.7484 440.576 50.4618 468.981 57.6476 481.486L57.8211 481.783C57.836 481.809 57.8498 481.833 57.866 481.859L58.0945 482.173L58.0695 482.191C58.7566 483.288 59.5888 484.287 60.5434 485.161L60.8555 485.395C61.2583 485.732 61.68 486.047 62.1187 486.336L62.7265 486.789C65.8846 488.56 69.4678 489.431 73.0865 489.308" fill="#102E75"/>
<path fill-rule="evenodd" clip-rule="evenodd" d="M109.89 275.869C113.573 274.683 116.456 273.51 118.041 272.056C118.228 271.881 118.416 271.701 118.578 271.52C114.517 268.296 110.731 264.74 107.257 260.891L107.207 260.956L103.6 266.109C103.625 266.151 106.196 270.006 109.89 275.869Z" fill="#98ABC0"/>
<path fill-rule="evenodd" clip-rule="evenodd" d="M83.4789 284.606C92.7279 279.567 102.813 277.069 109.841 274.621C106.321 268.618 103.887 264.671 103.862 264.635L83.042 276.815C83.0382 276.82 83.034 276.824 83.0295 276.828C83.0295 276.828 83.017 276.828 83.017 276.834C82.6823 277.041 82.3831 277.301 82.1308 277.603C82.1089 277.613 82.088 277.626 82.0684 277.64C81.4858 278.334 81.1561 279.204 81.1334 280.11C81.1107 281.015 81.3964 281.901 81.9436 282.623L83.4789 284.604" fill="#252F59"/>
<path fill-rule="evenodd" clip-rule="evenodd" d="M111.089 404.432L110.939 404.345C110.983 404.371 111.025 404.4 111.064 404.432H111.089ZM105.459 398.497C105.46 398.493 105.459 398.488 105.457 398.484C105.455 398.48 105.451 398.478 105.447 398.476C105.023 397.844 104.374 396.922 103.562 395.764C103.749 396.042 103.937 396.313 104.111 396.574C104.573 397.26 105.023 397.899 105.459 398.497ZM94.1509 382.685C88.1221 374.355 80.9201 364.407 75.2945 356.508C75.287 356.497 75.2783 356.483 75.2695 356.472C81.3694 365.292 88.3218 374.732 94.1509 382.684V382.685ZM74.4195 355.236C64.2406 340.016 55.7741 311.02 69.7126 294.591C60.8505 301.823 54.6095 318.93 61.8116 334.605C64.1944 339.794 68.9075 347.212 74.4182 355.236" fill="#23314B"/>
<path fill-rule="evenodd" clip-rule="evenodd" d="M182.236 505.142C182.236 505.142 97.9079 506.026 77.1543 505.142C71.2959 504.995 65.5843 503.28 60.6142 500.175C55.644 497.07 51.5972 492.689 48.8953 487.489C48.8953 487.489 21.5225 403.192 14.4578 374.503C8.86464 351.786 3.0668 342.635 0.893707 339.804C0.320654 339.069 0.00644289 338.166 0 337.235V332.037C21.2042 332.089 50.0823 452.113 54.1077 468.714C58.1893 485.565 66.1153 491.457 85.9877 491.457C100.492 491.457 145.164 487.452 168.193 485.295C169.974 485.128 171.769 485.334 173.465 485.901C175.161 486.467 176.719 487.382 178.041 488.586C179.363 489.79 180.419 491.256 181.141 492.892C181.863 494.528 182.236 496.296 182.236 498.084V505.142Z" fill="#D9E2E9"/>
<path fill-rule="evenodd" clip-rule="evenodd" d="M91.1177 405.681C91.1177 408.66 92.3013 411.517 94.408 413.624C96.5147 415.731 99.3721 416.914 102.351 416.914H677.779C680.756 416.911 683.61 415.726 685.714 413.62C687.818 411.513 689 408.658 689 405.681H91.1177Z" fill="#D8E2E9"/>
<path fill-rule="evenodd" clip-rule="evenodd" d="M119.826 657.815H124.819V415.666H119.826V657.815Z" fill="#D9E2E9"/>
<g clip-path="url(#clip1)">
<path fill-rule="evenodd" clip-rule="evenodd" d="M609.219 341.555L653.727 217.857H465.586C462.749 217.855 459.98 218.729 457.659 220.358C455.337 221.987 453.576 224.292 452.615 226.958L411.384 341.555H609.219Z" fill="#FFFFFE"/>
<path fill-rule="evenodd" clip-rule="evenodd" d="M599.686 365.015L607.821 342.621H410.274L405.385 356.088C405.022 357.101 404.91 358.185 405.058 359.25C405.205 360.315 405.608 361.329 406.231 362.205C406.855 363.081 407.681 363.794 408.639 364.283C409.598 364.773 410.66 365.023 411.737 365.015H599.686Z" fill="#D9E2E9"/>
<path fill-rule="evenodd" clip-rule="evenodd" d="M601.693 363.948C603.948 363.953 606.149 363.261 607.995 361.968C609.841 360.674 611.242 358.842 612.006 356.723L658.681 226.509C659.22 224.995 659.184 223.337 658.58 221.847C657.976 220.358 656.845 219.143 655.403 218.431L654.239 217.857L601.415 363.948H601.693Z" fill="#B3C1CF"/>
<path fill-rule="evenodd" clip-rule="evenodd" d="M510.67 363.948L523.652 402.337H570.455L557.164 363.948H510.67Z" fill="#D9E2E9"/>
<path fill-rule="evenodd" clip-rule="evenodd" d="M470.102 402.269V407.669H578.996L563.932 363.948H557.078L570.423 402.269H470.102Z" fill="#B3C1CF"/>
<path fill-rule="evenodd" clip-rule="evenodd" d="M616.116 224.255H481.845L484.226 217.857H618.497L616.116 224.255Z" fill="#B3C1CF"/>
<path fill-rule="evenodd" clip-rule="evenodd" d="M579.957 325.559H445.547L481.952 224.255H616.361L579.957 325.559Z" fill="#F4F6F8"/>
<path fill-rule="evenodd" clip-rule="evenodd" d="M543.488 322.36H481.845L494.934 285.038H556.576L543.488 322.36Z" fill="#FFFFFE"/>
<path fill-rule="evenodd" clip-rule="evenodd" d="M558.626 281.838H496.791L506.485 255.179H568.32L558.626 281.838Z" fill="#FFFFFE"/>
<path fill-rule="evenodd" clip-rule="evenodd" d="M594.775 251.98H507.467L516.243 227.454H603.55L594.775 251.98Z" fill="#FFFFFE"/>
<path fill-rule="evenodd" clip-rule="evenodd" d="M509.603 244.516L515.709 227.454H596.077C596.077 227.454 567.807 245.475 548.356 236.945C528.905 228.414 509.603 244.516 509.603 244.516Z" fill="#D9E2E9"/>
<path fill-rule="evenodd" clip-rule="evenodd" d="M509.005 237.051C510.894 231.749 508.151 227.454 502.887 227.454C497.624 227.454 491.806 231.75 489.916 237.051C488.027 242.352 490.77 246.648 496.034 246.648C501.297 246.648 507.115 242.352 509.005 237.051Z" fill="#B3C1CF"/>
<path fill-rule="evenodd" clip-rule="evenodd" d="M518.837 263.177C520.022 259.939 518.293 257.312 514.962 257.312C513.182 257.42 511.47 258.028 510.021 259.065C508.572 260.103 507.447 261.528 506.773 263.177C505.588 266.416 507.318 269.042 510.649 269.042C512.428 268.934 514.141 268.326 515.59 267.289C517.038 266.251 518.164 264.826 518.837 263.177Z" fill="#B3C1CF"/>
<path fill-rule="evenodd" clip-rule="evenodd" d="M506.026 294.102C507.211 290.861 505.482 288.237 502.161 288.237C500.38 288.343 498.665 288.95 497.215 289.987C495.764 291.025 494.636 292.451 493.962 294.102C492.777 297.34 494.507 299.967 497.827 299.967C499.608 299.86 501.323 299.253 502.774 298.216C504.225 297.178 505.352 295.752 506.026 294.102Z" fill="#B3C1CF"/>
<path fill-rule="evenodd" clip-rule="evenodd" d="M559.64 260.511H521.346L522.552 257.312H560.847L559.64 260.511Z" fill="#D9E2E9"/>
<path fill-rule="evenodd" clip-rule="evenodd" d="M498.809 258.378H485.048L486.233 255.179H499.994L498.809 258.378Z" fill="#D9E2E9"/>
<path fill-rule="evenodd" clip-rule="evenodd" d="M497.731 263.71H481.845L483.041 260.511H498.927L497.731 263.71Z" fill="#D9E2E9"/>
<path fill-rule="evenodd" clip-rule="evenodd" d="M491.315 267.976H480.778L481.984 264.777H492.521L491.315 267.976Z" fill="#D9E2E9"/>
<path fill-rule="evenodd" clip-rule="evenodd" d="M490.215 274.374H477.575L478.813 271.175H491.454L490.215 274.374Z" fill="#D9E2E9"/>
<path fill-rule="evenodd" clip-rule="evenodd" d="M547.908 291.436H509.603L510.798 288.237H549.103L547.908 291.436Z" fill="#D9E2E9"/>
<path fill-rule="evenodd" clip-rule="evenodd" d="M537.648 318.095H499.994L508.247 294.635H545.901L537.648 318.095Z" fill="#D9E2E9"/>
<path fill-rule="evenodd" clip-rule="evenodd" d="M556.438 266.909H518.143L519.339 263.71H557.644L556.438 266.909Z" fill="#D9E2E9"/>
<path fill-rule="evenodd" clip-rule="evenodd" d="M540.424 272.241H517.076L518.282 269.042H541.63L540.424 272.241Z" fill="#D9E2E9"/>
<path fill-rule="evenodd" clip-rule="evenodd" d="M433.921 277.573H433.804L449.38 233.967L433.921 277.573ZM452.807 224.901C453.993 222.771 455.726 220.995 457.828 219.757C459.929 218.519 462.324 217.863 464.764 217.857H464.668C462.241 217.863 459.859 218.52 457.773 219.758C455.687 220.997 453.972 222.773 452.807 224.9" fill="#D9E2E9"/>
<path fill-rule="evenodd" clip-rule="evenodd" d="M462.65 277.573L481.397 224.584L483.767 217.857H464.582C462.145 217.863 459.754 218.519 457.656 219.757C455.557 220.995 453.828 222.771 452.647 224.9C452.289 225.554 451.982 226.234 451.729 226.935L449.23 233.966L433.804 277.573H462.65Z" fill="#D9E2E9"/>
<path fill-rule="evenodd" clip-rule="evenodd" d="M541.406 224.255H481.845L484.237 217.857H543.765L541.406 224.255Z" fill="#98ABC0"/>
<path fill-rule="evenodd" clip-rule="evenodd" d="M499.407 276.507H464.764L483.767 224.255H543.765L542.858 226.791H517.481L508.535 251.384H534.029L533.122 253.919H507.617L499.407 276.507ZM481.205 270.661L480.009 273.967H492.308L493.503 270.661H481.205ZM483.233 265.081L482.037 268.386H492.575L493.77 265.081H483.233ZM485.261 259.5L484.066 262.806H499.984L501.19 259.5H485.261ZM487.29 253.919L486.094 257.225H499.984L501.19 253.919H487.29ZM504.072 226.791C509.378 226.791 512.143 231.037 510.232 236.281C508.321 241.526 502.482 245.772 497.165 245.772C491.848 245.772 489.094 241.526 490.994 236.281C492.895 231.037 498.756 226.791 504.072 226.791Z" fill="#CDD6E1"/>
<path fill-rule="evenodd" clip-rule="evenodd" d="M523.812 277.573H497.859L506.186 255.179H532.022L530.773 258.598H522.894L521.677 261.874H529.566L528.787 263.989H520.887L519.67 267.262H527.591L526.812 269.377H518.89L517.674 272.652H525.616L523.812 277.573ZM513.83 258.599C517.054 258.599 518.741 261.124 517.577 264.239C516.92 265.831 515.826 267.206 514.42 268.203C513.015 269.201 511.356 269.782 509.635 269.879C506.41 269.879 504.734 267.354 505.887 264.239C506.547 262.649 507.642 261.276 509.047 260.279C510.452 259.281 512.109 258.699 513.83 258.599Z" fill="#D9E2E9"/>
<path fill-rule="evenodd" clip-rule="evenodd" d="M532.844 251.98L539.121 234.449C538.449 234.407 537.776 234.386 537.114 234.386C522.36 234.386 510.232 244.358 510.232 244.358L516.371 227.454L507.467 251.98H532.844Z" fill="#D9E2E9"/>
<path fill-rule="evenodd" clip-rule="evenodd" d="M509.603 244.516C509.603 244.516 521.559 234.451 536.111 234.451C536.762 234.451 537.424 234.471 538.086 234.514L540.563 227.454H515.656L509.603 244.516Z" fill="#BAC5D6"/>
<path fill-rule="evenodd" clip-rule="evenodd" d="M496.034 246.648C501.307 246.648 507.115 242.352 509.005 237.051C510.894 231.75 508.151 227.454 502.887 227.454C497.624 227.454 491.806 231.75 489.916 237.051C488.027 242.352 490.77 246.648 496.034 246.648Z" fill="#98ABC0"/>
<path fill-rule="evenodd" clip-rule="evenodd" d="M510.649 269.042C512.428 268.934 514.141 268.326 515.59 267.289C517.038 266.251 518.164 264.826 518.837 263.177C520.022 259.939 518.293 257.312 514.962 257.312C513.182 257.42 511.47 258.028 510.021 259.065C508.572 260.103 507.447 261.528 506.773 263.177C505.588 266.416 507.318 269.042 510.649 269.042Z" fill="#98ABC0"/>
<path fill-rule="evenodd" clip-rule="evenodd" d="M528.755 260.511H521.346L522.488 257.312H529.887L528.755 260.511Z" fill="#BAC5D6"/>
<path fill-rule="evenodd" clip-rule="evenodd" d="M498.809 258.378H485.048L486.233 255.179H499.994L498.809 258.378Z" fill="#BAC5D6"/>
<path fill-rule="evenodd" clip-rule="evenodd" d="M497.731 263.71H481.845L483.041 260.511H498.927L497.731 263.71Z" fill="#BAC5D6"/>
<path fill-rule="evenodd" clip-rule="evenodd" d="M491.315 267.976H480.778L481.984 264.777H492.521L491.315 267.976Z" fill="#BAC5D6"/>
<path fill-rule="evenodd" clip-rule="evenodd" d="M490.215 274.374H477.575L478.813 271.175H491.454L490.215 274.374Z" fill="#BAC5D6"/>
<path fill-rule="evenodd" clip-rule="evenodd" d="M525.563 266.909H518.143L519.285 263.71H526.684L525.563 266.909Z" fill="#BAC5D6"/>
<path fill-rule="evenodd" clip-rule="evenodd" d="M524.495 272.241H517.076L518.207 269.042H525.616L524.495 272.241Z" fill="#BAC5D6"/>
<g filter="url(#filter0_d)">
<path fill-rule="evenodd" clip-rule="evenodd" d="M629.375 181.6H540.563L570.252 104.822H659.065L629.375 181.6Z" fill="white"/>
</g>
<path fill-rule="evenodd" clip-rule="evenodd" d="M597.155 132.014C594.679 138.694 587.398 144.13 580.918 144.13C574.437 144.13 571.181 138.692 573.647 132.014C576.113 125.337 583.405 119.898 589.885 119.898C596.365 119.898 599.622 125.333 597.155 132.014ZM580.074 146.41C587.782 146.41 596.429 139.952 599.365 132.014C602.301 124.076 598.426 117.619 590.729 117.619C583.031 117.619 574.373 124.076 571.437 132.014C568.501 139.952 572.377 146.41 580.074 146.41Z" fill="#FFFFFE"/>
<path fill-rule="evenodd" clip-rule="evenodd" d="M579.946 148.543C583.639 148.434 587.231 147.308 590.323 145.288C598.65 140.11 603.305 130.572 600.689 124.017L596.526 126.6C598.426 131.349 595.052 138.266 589.01 142.019C582.967 145.773 576.508 144.96 574.619 140.212L570.455 142.793C571.96 146.571 575.569 148.543 579.946 148.543Z" fill="#FFFFFE"/>
<path fill-rule="evenodd" clip-rule="evenodd" d="M580.063 147.477C588.583 147.477 598.148 140.78 601.394 132.548C604.639 124.315 600.358 117.619 591.839 117.619L590.227 121.725C596.397 121.725 599.504 126.579 597.145 132.547C594.785 138.514 587.857 143.369 581.686 143.369L580.063 147.477Z" fill="#B3C1CF"/>
<path fill-rule="evenodd" clip-rule="evenodd" d="M636.656 132.014C634.179 138.694 626.899 144.13 620.418 144.13C613.938 144.13 610.682 138.692 613.148 132.014C615.614 125.337 622.906 119.898 629.386 119.898C635.866 119.898 639.122 125.333 636.656 132.014ZM619.575 146.41C627.283 146.41 635.93 139.952 638.866 132.014C641.802 124.076 637.927 117.619 630.229 117.619C622.532 117.619 613.874 124.076 610.938 132.014C608.002 139.952 611.878 146.41 619.575 146.41Z" fill="#FFFFFE"/>
<path fill-rule="evenodd" clip-rule="evenodd" d="M619.564 147.477C628.083 147.477 637.649 140.78 640.894 132.548C644.14 124.315 639.859 117.619 631.34 117.619L629.717 121.725C635.898 121.725 639.005 126.579 636.646 132.547C634.286 138.514 627.358 143.369 621.187 143.369L619.564 147.477Z" fill="#FFFFFE"/>
<path fill-rule="evenodd" clip-rule="evenodd" d="M629.567 144.278C634.139 141.598 637.734 137.529 639.827 132.665C643.094 124.369 638.77 117.619 630.187 117.619L628.553 121.757C634.777 121.757 637.905 126.65 635.535 132.665C634.021 136.191 631.417 139.141 628.105 141.084L629.567 144.283" fill="#B3C1CF"/>
<path fill-rule="evenodd" clip-rule="evenodd" d="M586.202 161.339H556.576L557.911 158.14H587.536L586.202 161.339Z" fill="#B3C1CF"/>
<path fill-rule="evenodd" clip-rule="evenodd" d="M585.134 167.738H555.509L556.843 164.539H586.469L585.134 167.738Z" fill="#FFFFFE"/>
<path fill-rule="evenodd" clip-rule="evenodd" d="M573.37 173.069H553.374L554.719 169.87H574.725L573.37 173.069Z" fill="#FFFFFE"/>
<path fill-rule="evenodd" clip-rule="evenodd" d="M626.77 161.339H597.145L598.479 158.14H628.105L626.77 161.339Z" fill="#FFFFFE"/>
<path fill-rule="evenodd" clip-rule="evenodd" d="M613.949 167.738H595.01L596.355 164.539H615.294L613.949 167.738Z" fill="#FFFFFE"/>
<g filter="url(#filter1_d)">
<path fill-rule="evenodd" clip-rule="evenodd" d="M396.438 237.051L421.11 167.738H525.616L500.944 237.051H396.438Z" fill="white"/>
</g>
<path fill-rule="evenodd" clip-rule="evenodd" d="M461.369 201.328C465.404 189.844 459.437 180.534 448.045 180.534C436.654 180.534 424.153 189.844 420.117 201.328C416.082 212.812 422.039 222.122 433.43 222.122C444.821 222.122 457.333 212.812 461.369 201.328Z" fill="#F2F9FF"/>
<path fill-rule="evenodd" clip-rule="evenodd" d="M506.133 183.733H476.507L477.842 180.534H507.467L506.133 183.733Z" fill="#B3C1CF"/>
<path fill-rule="evenodd" clip-rule="evenodd" d="M503.998 189.065H474.372L475.707 185.866H505.332L503.998 189.065Z" fill="#EEF2F5"/>
<path fill-rule="evenodd" clip-rule="evenodd" d="M493.3 195.463H473.305L474.65 192.264H494.656L493.3 195.463Z" fill="#EEF2F5"/>
<path fill-rule="evenodd" clip-rule="evenodd" d="M495.457 213.591H465.831L467.166 210.392H496.791L495.457 213.591Z" fill="#EEF2F5"/>
<path fill-rule="evenodd" clip-rule="evenodd" d="M482.625 218.923H462.629L463.974 215.724H483.98L482.625 218.923Z" fill="#EEF2F5"/>
<path fill-rule="evenodd" clip-rule="evenodd" d="M449.38 196.015C450.789 192.177 448.707 189.065 444.736 189.065C442.618 189.184 440.577 189.9 438.85 191.13C437.123 192.36 435.781 194.054 434.978 196.015C432.512 202.74 434.103 207.193 438.074 207.193C442.045 207.193 446.892 202.8 449.38 196.015Z" fill="#B3C1CF"/>
<path fill-rule="evenodd" clip-rule="evenodd" d="M420.993 215.961C426.053 208.536 449.764 208.536 449.818 215.961C444.811 219.766 438.939 222.122 433.334 222.122C427.729 222.122 423.437 219.766 420.993 215.961Z" fill="#B3C1CF"/>
</g>
<g clip-path="url(#clip2)">
<path fill-rule="evenodd" clip-rule="evenodd" d="M573.639 566.247H584.876C584.92 558.476 585.653 550.725 587.067 543.083C589.258 532.93 593.008 521.354 596.3 516.717C599.592 512.08 617.155 518.996 623.17 527.094C631.264 537.968 640.15 542.406 646.425 545.926C646.75 546.107 647.117 546.199 647.489 546.194C647.861 546.188 648.225 546.085 648.545 545.894C648.864 545.704 649.128 545.433 649.31 545.108C649.492 544.784 649.585 544.417 649.581 544.045V529.175C649.581 525.542 652.329 525.542 652.329 529.155C652.329 534.693 653.888 546.655 653.888 546.655C653.89 547.2 654.097 547.725 654.469 548.124C654.841 548.522 655.35 548.765 655.893 548.805C671.24 550.035 676.241 539.418 680.152 531.511C684.236 523.268 688.035 502.457 672.862 505.991C657.688 509.525 646.598 503.639 625.583 500.112C604.568 496.586 596.399 506.615 591.882 516.717C587.364 526.819 573.639 566.247 573.639 566.247Z" fill="#006044"/>
<path fill-rule="evenodd" clip-rule="evenodd" d="M589.728 564.353H593.243C593.243 564.353 597.736 550.921 600.694 551.469C603.652 552.018 606.399 559.606 605.001 564.353C603.602 569.1 599.382 592.593 605.001 613.045C610.62 633.498 631.623 636.818 631.623 636.818C631.623 636.818 627.477 630.48 625.942 618.603C624.407 606.727 633.158 595.167 631.623 586.59C630.088 578.013 613.64 566.493 610.57 560.042C607.501 553.591 609.481 550.586 608.38 547.949C607.278 545.312 599.382 540.469 596.09 547.949C592.798 555.429 589.728 564.353 589.728 564.353Z" fill="#006044"/>
<path fill-rule="evenodd" clip-rule="evenodd" d="M567.24 566.247H563.824C561.002 556.095 558.613 494.834 561.002 478.216C563.391 461.598 572.512 426.393 591.968 415.566C611.424 404.738 647.688 359.478 647.688 359.478C650.349 370.91 648.665 398.825 647.96 408.669C647.939 408.958 647.834 409.233 647.657 409.462C647.481 409.691 647.241 409.862 646.967 409.955C646.693 410.047 646.398 410.057 646.119 409.982C645.84 409.908 645.589 409.753 645.398 409.536C642.18 405.902 636.425 399.617 633.566 397.961C629.482 395.589 627.241 399.33 631.425 402.005C637.786 406.082 643.244 414.32 646.376 418.954C646.815 419.609 647.119 420.345 647.272 421.119C647.425 421.893 647.423 422.69 647.267 423.463C644.519 437.485 634.729 451.122 631.128 455.765C630.982 455.954 630.791 456.104 630.573 456.203C630.355 456.301 630.116 456.344 629.878 456.327C629.639 456.311 629.408 456.237 629.205 456.11C629.002 455.983 628.834 455.809 628.714 455.601L615.1 432.51C611.684 426.724 608.392 432.948 612.056 439.289C614.927 444.265 621.907 455.36 624.779 459.909C625.171 460.528 625.353 461.257 625.297 461.988C625.241 462.718 624.951 463.411 624.469 463.964C622.724 465.932 619.061 469.684 611.412 476.682C597.29 489.582 578.564 493.829 571.943 495.501C564.381 497.416 564.826 506.05 564.628 526.972C564.716 540.104 565.588 553.219 567.24 566.247Z" fill="#00835E"/>
<path fill-rule="evenodd" clip-rule="evenodd" d="M561.262 566.247H557.759C557.759 566.247 554.257 553.389 550.977 541.319C547.697 529.248 540.482 511.689 526.694 510.811C522.41 510.425 518.097 510.522 513.835 511.098C508.623 511.655 503.374 511.779 498.141 511.47C483.648 510.953 467.485 504.234 461.16 501.353C460.861 501.214 460.599 501.008 460.393 500.751C460.187 500.494 460.044 500.193 459.975 499.871C459.905 499.549 459.911 499.215 459.992 498.896C460.073 498.577 460.227 498.281 460.442 498.031C464.601 493.267 464.786 488.687 465.653 484.691C466.631 480.135 462.645 481.163 461.853 484.766C460.467 491.054 453.697 495.433 450.9 497.003C450.548 497.206 450.145 497.304 449.739 497.285C449.334 497.265 448.942 497.13 448.61 496.896C435.021 486.838 435.021 464.72 435.021 464.72C448.152 471.084 468.499 470.646 491.037 468.451C513.575 466.255 545.729 482.279 547.474 499.836C549.22 517.393 561.262 566.247 561.262 566.247Z" fill="#00835E"/>
<path fill-rule="evenodd" clip-rule="evenodd" d="M562.92 541.616L563.576 559.719C563.576 559.719 565.086 546.729 558.725 541.071C552.363 535.413 547.759 544.117 537.437 553.256C527.115 562.394 533.204 564.786 518.847 584.365C504.491 603.944 477.101 599.161 477.101 599.161C481.47 594.479 485.366 589.378 488.735 583.932C495.307 573.707 498.389 557.826 506.062 544.087C513.736 530.349 530.655 525.67 538.105 524.322C550.098 522.146 562.92 541.617 562.92 541.617" fill="#00835E"/>
<path fill-rule="evenodd" clip-rule="evenodd" d="M558.155 566.247H530.32L550.915 660.346H603.07L618.194 566.247H558.155Z" fill="#FFFFFE"/>
<path fill-rule="evenodd" clip-rule="evenodd" d="M548.885 511.769C548.069 507.135 547.437 503.027 547.128 499.906C547.437 503.029 548.069 507.127 548.885 511.764V511.769ZM465.281 469.603C473.079 469.603 481.507 469.023 490.27 468.166C481.532 469.019 473.128 469.596 465.368 469.596C455.182 469.596 446.085 468.605 438.734 465.953L438.771 465.993C446.098 468.623 455.145 469.603 465.281 469.603ZM490.493 468.145L490.777 468.116L490.493 468.145Z" fill="#B3C1CF"/>
<path fill-rule="evenodd" clip-rule="evenodd" d="M548.885 511.769C548.069 507.128 547.437 503.024 547.14 499.898C545.494 483.204 517.127 467.879 495.035 467.879C493.574 467.879 492.151 467.945 490.753 468.084L490.468 468.111C490.394 468.12 490.319 468.125 490.245 468.132C481.482 468.99 473.042 469.571 465.257 469.571C455.12 469.571 446.061 468.59 438.734 465.958C445.615 472.804 458.512 478.101 484.341 479.206C518.365 480.664 539.677 497.778 548.885 511.769Z" fill="#006754"/>
<path fill-rule="evenodd" clip-rule="evenodd" d="M560.024 496.912C559.977 490.649 560.299 484.389 560.99 478.164C560.299 484.389 559.977 490.649 560.024 496.912Z" fill="#B3C1CF"/>
<path fill-rule="evenodd" clip-rule="evenodd" d="M560.024 501.864C565.668 483.86 589.283 476.648 590.867 451.628C592.686 422.969 619.655 427.82 623.578 400.483C625.62 386.244 637.861 377.81 649.136 372.996C649.092 368.474 648.644 363.964 647.799 359.522H647.787V359.478C647.787 359.478 611.461 405.114 591.993 416.025C572.525 426.937 563.391 462.431 561.002 479.184C560.323 485.461 560.005 491.772 560.049 498.085C560.037 499.316 560.024 500.578 560.024 501.864Z" fill="#006754"/>
<path fill-rule="evenodd" clip-rule="evenodd" d="M554.083 566.247C573.824 593.399 522.697 657.061 603.342 660.346H550.989L530.32 566.247H554.083Z" fill="#B3C1CF"/>
</g>
</g>
<defs>
<filter id="filter0_d" x="526.421" y="92.6802" width="146.786" height="105.062" filterUnits="userSpaceOnUse" color-interpolation-filters="sRGB">
<feFlood flood-opacity="0" result="BackgroundImageFix"/>
<feColorMatrix in="SourceAlpha" type="matrix" values="0 0 0 0 0 0 0 0 0 0 0 0 0 0 0 0 0 0 127 0"/>
<feOffset dy="2"/>
<feGaussianBlur stdDeviation="7.071"/>
<feColorMatrix type="matrix" values="0 0 0 0 0.752941 0 0 0 0 0.796078 0 0 0 0 0.835294 0 0 0 0.09 0"/>
<feBlend mode="normal" in2="BackgroundImageFix" result="effect1_dropShadow"/>
<feBlend mode="normal" in="SourceGraphic" in2="effect1_dropShadow" result="shape"/>
</filter>
<filter id="filter1_d" x="390.114" y="161.414" width="141.826" height="81.9616" filterUnits="userSpaceOnUse" color-interpolation-filters="sRGB">
<feFlood flood-opacity="0" result="BackgroundImageFix"/>
<feColorMatrix in="SourceAlpha" type="matrix" values="0 0 0 0 0 0 0 0 0 0 0 0 0 0 0 0 0 0 127 0"/>
<feOffset/>
<feGaussianBlur stdDeviation="3.162"/>
<feColorMatrix type="matrix" values="0 0 0 0 0.321569 0 0 0 0 0.494118 0 0 0 0 0.556863 0 0 0 0.1 0"/>
<feBlend mode="normal" in2="BackgroundImageFix" result="effect1_dropShadow"/>
<feBlend mode="normal" in="SourceGraphic" in2="effect1_dropShadow" result="shape"/>
</filter>
<clipPath id="clip0">
<rect width="689" height="689" fill="white"/>
</clipPath>
<clipPath id="clip1">
<rect width="325.614" height="352.966" fill="white" transform="translate(386.83 54.7032)"/>
</clipPath>
<clipPath id="clip2">
<rect width="248.769" height="300.868" fill="white" transform="translate(435.021 359.478)"/>
</clipPath>
</defs>
</svg>
