<svg width="482" height="481" viewBox="0 0 482 481" fill="none" xmlns="http://www.w3.org/2000/svg">
<path d="M456.915 268.472C456.915 385.848 356.646 481 232.958 481C109.269 481 9 385.848 9 268.472C9 151.096 176.968 266.54 232.958 46.2843C329.667 -104.417 456.915 151.096 456.915 268.472Z" fill="white"/>
<path d="M220.426 332.036L220.429 331.228C222.036 331.232 223.668 331.205 225.279 331.146L225.309 331.953C223.687 332.013 222.044 332.041 220.426 332.036ZM215.546 331.926C213.93 331.858 212.291 331.756 210.674 331.623L210.74 330.817C212.347 330.95 213.975 331.051 215.58 331.119L215.546 331.926ZM230.183 331.676L230.121 330.87C231.726 330.747 233.35 330.589 234.948 330.402L235.042 331.205C233.433 331.394 231.798 331.552 230.183 331.676ZM205.817 331.125C204.206 330.927 202.58 330.694 200.984 330.433L201.115 329.635C202.7 329.895 204.315 330.126 205.915 330.323L205.817 331.125ZM239.878 330.538L239.752 329.74C241.338 329.489 242.944 329.2 244.525 328.884L244.684 329.677C243.092 329.996 241.475 330.285 239.878 330.538H239.878ZM196.183 329.545C194.593 329.218 192.992 328.854 191.422 328.464L191.617 327.68C193.176 328.067 194.767 328.428 196.346 328.753L196.183 329.545ZM249.451 328.621L249.26 327.836C250.827 327.456 252.404 327.039 253.949 326.597L254.171 327.375C252.616 327.819 251.028 328.239 249.451 328.621H249.451ZM186.708 327.191C185.151 326.736 183.584 326.244 182.05 325.728L182.308 324.962C183.831 325.474 185.388 325.963 186.935 326.415L186.708 327.191ZM258.837 325.936L258.583 325.169C260.111 324.664 261.649 324.12 263.156 323.553L263.441 324.31C261.924 324.881 260.375 325.428 258.837 325.936H258.837ZM177.443 324.072C175.928 323.493 174.403 322.874 172.908 322.231L173.228 321.489C174.712 322.127 176.227 322.742 177.732 323.317L177.443 324.072ZM267.963 322.504L267.648 321.759C269.128 321.133 270.614 320.469 272.064 319.785L272.409 320.516C270.949 321.205 269.452 321.874 267.963 322.504H267.963ZM168.453 320.208C166.987 319.506 165.517 318.766 164.085 318.007L164.464 317.293C165.886 318.046 167.346 318.782 168.802 319.479L168.453 320.208ZM276.773 318.35L276.399 317.633C277.825 316.889 279.254 316.106 280.645 315.307L281.048 316.008C279.647 316.812 278.209 317.6 276.773 318.35ZM159.811 315.631C158.405 314.812 157.001 313.956 155.637 313.086L156.072 312.404C157.426 313.269 158.821 314.119 160.218 314.933L159.811 315.631ZM285.226 313.495L284.796 312.811C286.154 311.957 287.516 311.062 288.844 310.15L289.301 310.816C287.964 311.734 286.593 312.636 285.226 313.495ZM151.571 310.375C150.237 309.447 148.907 308.482 147.617 307.504L148.105 306.86C149.386 307.831 150.708 308.79 152.032 309.712L151.571 310.375ZM293.267 307.975L292.783 307.328C294.067 306.368 295.354 305.367 296.606 304.35L297.116 304.978C295.855 306.001 294.56 307.01 293.267 307.976V307.975ZM143.782 304.477C142.53 303.447 141.282 302.378 140.073 301.299L140.611 300.696C141.813 301.768 143.052 302.83 144.296 303.853L143.782 304.477ZM300.843 301.827L300.309 301.22C301.517 300.157 302.719 299.055 303.883 297.944L304.441 298.529C303.27 299.647 302.059 300.756 300.843 301.827ZM136.494 297.977C135.332 296.852 134.174 295.687 133.053 294.514L133.637 293.955C134.751 295.121 135.901 296.279 137.056 297.395L136.494 297.977ZM307.906 295.089L307.325 294.526C308.443 293.371 309.554 292.176 310.628 290.974L311.231 291.512C310.15 292.722 309.032 293.926 307.906 295.089ZM129.753 290.917C128.679 289.699 127.618 288.445 126.6 287.192L127.228 286.682C128.239 287.928 129.293 289.173 130.359 290.383L129.753 290.917ZM314.411 287.805L313.786 287.291C314.812 286.046 315.824 284.765 316.795 283.484L317.44 283.972C316.462 285.262 315.443 286.551 314.411 287.805V287.805ZM123.6 283.344C122.63 282.048 121.673 280.714 120.756 279.381L121.423 278.923C122.333 280.247 123.283 281.572 124.247 282.86L123.6 283.344ZM320.313 280.02L319.65 279.558C320.572 278.233 321.479 276.875 322.344 275.52L323.026 275.954C322.155 277.318 321.242 278.686 320.313 280.02ZM118.075 275.307C117.214 273.938 116.368 272.533 115.561 271.13L116.261 270.727C117.063 272.121 117.903 273.517 118.759 274.876L118.075 275.307ZM325.574 271.782L324.876 271.375C325.69 269.979 326.484 268.551 327.238 267.13L327.952 267.509C327.193 268.939 326.393 270.377 325.574 271.782V271.782ZM113.217 266.856C112.468 265.423 111.739 263.955 111.048 262.493L111.779 262.148C112.465 263.601 113.19 265.059 113.933 266.482L113.217 266.856ZM330.155 263.143L329.426 262.793C330.123 261.339 330.8 259.851 331.438 258.369L332.181 258.689C331.538 260.181 330.857 261.679 330.155 263.143ZM109.058 258.048C108.426 256.557 107.817 255.036 107.249 253.527L108.005 253.242C108.57 254.741 109.174 256.252 109.802 257.732L109.058 258.048ZM334.025 254.155L333.27 253.866C333.848 252.355 334.402 250.816 334.917 249.29L335.682 249.549C335.165 251.085 334.607 252.634 334.025 254.155V254.155ZM105.62 248.924C105.111 247.386 104.626 245.816 104.18 244.259L104.957 244.037C105.4 245.583 105.882 247.142 106.388 248.67L105.62 248.924ZM337.149 244.891L336.373 244.664C336.824 243.123 337.25 241.548 337.64 239.983L338.424 240.178C338.032 241.754 337.603 243.34 337.149 244.891ZM102.93 239.539C102.546 237.964 102.191 236.36 101.872 234.773L102.665 234.614C102.981 236.191 103.334 237.784 103.715 239.348L102.93 239.539ZM339.508 235.418L338.716 235.254C339.04 233.681 339.338 232.076 339.6 230.486L340.397 230.617C340.134 232.218 339.835 233.833 339.508 235.418V235.418ZM101.008 229.968C100.754 228.371 100.529 226.744 100.339 225.132L101.141 225.037C101.33 226.639 101.554 228.255 101.806 229.841L101.008 229.968ZM341.093 225.784L340.29 225.685C340.488 224.086 340.655 222.463 340.788 220.861L341.593 220.928C341.46 222.54 341.291 224.174 341.093 225.784V225.784ZM99.8645 220.273C99.7393 218.658 99.6452 217.018 99.5848 215.399L100.392 215.368C100.453 216.977 100.546 218.606 100.67 220.211L99.8645 220.273ZM341.9 216.056L341.092 216.022C341.161 214.411 341.198 212.78 341.204 211.173L341.204 210.905L342.013 210.908L342.012 211.174C342.007 212.793 341.969 214.435 341.9 216.056ZM100.307 210.519L99.4987 210.517L99.4994 210.381C99.5045 208.804 99.5403 207.207 99.6061 205.636L100.414 205.67C100.348 207.231 100.313 208.817 100.308 210.385L100.307 210.519ZM341.113 206.057C341.052 204.452 340.957 202.823 340.831 201.215L341.637 201.152C341.764 202.77 341.859 204.41 341.921 206.026L341.113 206.057ZM100.713 200.83L99.9068 200.764C100.039 199.146 100.206 197.512 100.402 195.907L101.205 196.005C101.01 197.599 100.844 199.222 100.713 200.83ZM340.354 196.389C340.165 194.794 339.939 193.178 339.684 191.586L340.483 191.458C340.739 193.061 340.966 194.688 341.157 196.294L340.354 196.389ZM101.89 191.204L101.092 191.074C101.354 189.474 101.651 187.858 101.977 186.272L102.769 186.435C102.445 188.01 102.15 189.615 101.89 191.204H101.89ZM338.82 186.814C338.501 185.233 338.146 183.641 337.765 182.081L338.55 181.889C338.934 183.459 339.291 185.063 339.613 186.654L338.82 186.814ZM103.84 181.705L103.055 181.511C103.444 179.939 103.872 178.352 104.325 176.796L105.102 177.022C104.651 178.568 104.227 180.144 103.84 181.705ZM336.518 177.394C336.073 175.849 335.59 174.29 335.082 172.762L335.85 172.507C336.361 174.046 336.847 175.615 337.295 177.171L336.518 177.394ZM106.552 172.395L105.786 172.137C106.303 170.599 106.859 169.049 107.439 167.529L108.194 167.817C107.618 169.327 107.065 170.867 106.552 172.395ZM333.459 168.192C332.89 166.686 332.283 165.176 331.658 163.703L332.401 163.387C333.032 164.87 333.642 166.39 334.215 167.906L333.459 168.192ZM110.021 163.312L109.278 162.993C109.918 161.501 110.598 160.002 111.298 158.537L112.027 158.886C111.331 160.341 110.656 161.83 110.021 163.312H110.021ZM329.675 159.29C328.988 157.839 328.262 156.381 327.517 154.958L328.232 154.583C328.983 156.016 329.715 157.483 330.406 158.944L329.675 159.29ZM114.212 154.545L113.497 154.168C114.255 152.734 115.054 151.295 115.87 149.892L116.569 150.298C115.758 151.692 114.965 153.122 114.212 154.545ZM325.184 150.716C324.38 149.322 323.538 147.927 322.681 146.57L323.365 146.138C324.227 147.505 325.075 148.909 325.884 150.312L325.184 150.716ZM119.095 146.151L118.413 145.717C119.285 144.349 120.196 142.98 121.122 141.648L121.785 142.11C120.866 143.432 119.961 144.792 119.095 146.151ZM320.013 142.526C319.101 141.202 318.149 139.878 317.185 138.592L317.831 138.107C318.802 139.402 319.76 140.734 320.679 142.068L320.013 142.526ZM124.635 138.181L123.991 137.693C124.969 136.4 125.987 135.109 127.015 133.857L127.64 134.37C126.618 135.614 125.607 136.896 124.635 138.181ZM314.2 134.773C313.185 133.526 312.129 132.282 311.064 131.076L311.67 130.541C312.742 131.755 313.805 133.007 314.827 134.263L314.2 134.773ZM130.795 130.683L130.191 130.146C131.269 128.937 132.386 127.732 133.512 126.565L134.094 127.127C132.975 128.286 131.865 129.482 130.795 130.683H130.795ZM307.783 127.506C306.668 126.342 305.516 125.186 304.359 124.07L304.921 123.488C306.085 124.612 307.244 125.775 308.366 126.947L307.783 127.506ZM137.532 123.706L136.973 123.122C138.143 122.003 139.353 120.892 140.568 119.82L141.103 120.426C139.895 121.491 138.694 122.595 137.532 123.706L137.532 123.706ZM300.801 120.773C299.597 119.701 298.356 118.641 297.113 117.621L297.626 116.996C298.877 118.023 300.126 119.09 301.339 120.169L300.801 120.773ZM144.802 117.292L144.291 116.665C145.549 115.642 146.843 114.632 148.137 113.663L148.622 114.31C147.336 115.272 146.051 116.276 144.802 117.292L144.802 117.292ZM293.3 114.618C292.014 113.646 290.691 112.688 289.37 111.77L289.831 111.106C291.161 112.03 292.492 112.995 293.788 113.973L293.3 114.618ZM152.558 111.483L152.1 110.817C153.435 109.898 154.805 108.995 156.172 108.134L156.603 108.817C155.246 109.673 153.885 110.57 152.558 111.483ZM285.327 109.082C283.967 108.216 282.571 107.367 281.178 106.558L281.584 105.859C282.986 106.674 284.391 107.529 285.761 108.4L285.327 109.082ZM160.751 106.318L160.347 105.617C161.748 104.811 163.185 104.021 164.619 103.271L164.994 103.987C163.569 104.733 162.142 105.517 160.751 106.318V106.318ZM276.93 104.203C275.505 103.45 274.044 102.716 272.589 102.022L272.937 101.292C274.402 101.992 275.873 102.731 277.307 103.488L276.93 104.203ZM169.327 101.83L168.981 101.099C170.441 100.409 171.936 99.7387 173.425 99.1065L173.741 99.8506C172.262 100.478 170.777 101.144 169.327 101.83L169.327 101.83ZM268.162 100.017C266.678 99.3812 265.162 98.7678 263.655 98.1933L263.944 97.438C265.46 98.0163 266.987 98.6341 268.48 99.274L268.162 100.017ZM178.231 98.0515L177.945 97.2951C179.46 96.7233 181.008 96.1746 182.547 95.6639L182.801 96.4313C181.273 96.9385 179.735 97.4837 178.231 98.0515ZM259.077 96.5536C257.551 96.042 255.994 95.5548 254.448 95.1055L254.674 94.3294C256.23 94.7817 257.797 95.2721 259.333 95.7871L259.077 96.5536ZM187.435 94.9974L187.212 94.2207C188.768 93.7734 190.355 93.3519 191.931 92.9677L192.122 93.753C190.558 94.1347 188.98 94.5535 187.435 94.9974ZM249.765 93.8464C248.205 93.4606 246.614 93.1011 245.034 92.778L245.196 91.9859C246.786 92.3113 248.389 92.6733 249.959 93.0615L249.765 93.8464ZM196.856 92.7002L196.696 91.9078C198.282 91.5886 199.899 91.297 201.501 91.0412L201.629 91.8393C200.037 92.0936 198.431 92.3832 196.856 92.7002ZM240.265 91.9019C238.676 91.6433 237.06 91.4134 235.463 91.2191L235.561 90.4166C237.169 90.6123 238.795 90.8436 240.394 91.1042L240.265 91.9019ZM206.432 91.1718L206.336 90.369C207.945 90.1785 209.58 90.0178 211.195 89.8921L211.258 90.6979C209.653 90.8231 208.03 90.9824 206.432 91.1718ZM230.639 90.7297C229.036 90.5995 227.408 90.4999 225.798 90.4336L225.831 89.6257C227.452 89.6926 229.091 89.7929 230.704 89.9239L230.639 90.7297ZM216.1 90.4175L216.069 89.6098C217.686 89.5484 219.328 89.5186 220.951 89.5211L220.949 90.3295C219.338 90.327 217.706 90.3566 216.1 90.4175Z" fill="#3F3D56"/>
<path d="M91.8197 317.013C95.6912 301.195 108.232 288.444 124.149 284.736C132.61 282.763 141.465 283.332 149.604 286.372C157.888 289.497 164.995 295.056 171.608 300.813C184.383 311.935 196.757 323.513 212.189 330.934C225.973 337.563 241.494 340.378 256.482 336.425C263.276 334.7 269.587 331.448 274.934 326.916C280.407 322.179 284.258 315.976 286.812 309.249C292.167 295.15 292.061 279.727 296.149 265.299C298.256 257.863 301.6 250.839 306.941 245.173C312.221 239.571 318.941 235.466 326.07 232.649C342.974 225.968 361.27 226.51 379.127 226.745C396.003 226.968 413.297 226.677 429.105 220.031C436.149 217.07 442.725 212.883 447.922 207.235C453.459 201.217 457.148 193.816 459.789 186.135C461.152 182.17 462.238 178.118 463.214 174.043C463.578 172.526 461.24 171.878 460.876 173.398C458.854 181.836 456.341 190.282 451.895 197.796C447.738 204.775 441.835 210.552 434.767 214.556C419.873 223.113 402.291 224.414 385.488 224.376C367.456 224.336 349.009 222.994 331.493 228.217C317.239 232.467 304.12 240.982 297.52 254.706C290.949 268.368 290.72 283.871 287.449 298.434C285.824 305.667 283.395 312.789 279.038 318.861C274.696 324.913 268.476 329.436 261.592 332.194C246.872 338.093 230.458 336.363 216.169 330.107C200.15 323.093 187.32 311.409 174.353 300C168.106 294.505 161.537 289.154 153.956 285.603C147.773 282.674 141.015 281.159 134.174 281.168C127.332 281.178 120.579 282.712 114.404 285.658C108.23 288.604 102.789 292.889 98.4782 298.202C94.1671 303.514 91.0936 309.72 89.4811 316.369C89.1102 317.884 91.4482 318.531 91.8196 317.014L91.8197 317.013Z" fill="#3F3D56"/>
<path d="M263.575 376.485H222.964C220.192 360.463 220.192 344.085 222.964 328.064H263.575C259 343.88 259 360.669 263.575 376.485Z" fill="#FFA500"/>
<path d="M111.66 327.969H152.271C155.043 311.947 155.043 295.569 152.271 279.547H111.66C116.235 295.363 116.235 312.152 111.66 327.969Z" fill="#4D5CF2"/>
<path d="M120.266 299.917C121.626 299.384 123.089 299.164 124.545 299.273C126.002 299.383 127.415 299.819 128.68 300.55C130.814 301.742 132.75 303.198 135.226 303.578C137.253 303.884 139.325 303.568 141.168 302.67C143.534 301.513 144.994 299.287 147.02 297.69C148.156 296.794 146.554 295.212 145.429 296.099C143.451 297.659 142.04 299.927 139.63 300.885C137.05 301.911 134.539 301.388 132.2 300.04C130.313 298.953 128.556 297.709 126.39 297.237C124.147 296.754 121.813 296.932 119.668 297.748C118.323 298.248 118.905 300.423 120.266 299.917L120.266 299.917Z" fill="#F2F2F2"/>
<path d="M120.266 310.792C121.626 310.259 123.089 310.039 124.545 310.148C126.002 310.258 127.415 310.694 128.68 311.425C130.814 312.617 132.75 314.073 135.226 314.453C137.253 314.759 139.325 314.443 141.168 313.545C143.534 312.388 144.994 310.162 147.02 308.565C148.156 307.669 146.554 306.087 145.429 306.974C143.451 308.534 142.04 310.802 139.63 311.76C137.05 312.786 134.539 312.263 132.2 310.915C130.313 309.828 128.556 308.584 126.39 308.112C124.147 307.629 121.813 307.807 119.668 308.623C118.323 309.123 118.905 311.298 120.266 310.792H120.266Z" fill="#F2F2F2"/>
<path d="M252.505 342.292C251.145 341.759 249.682 341.538 248.226 341.648C246.769 341.757 245.356 342.194 244.091 342.925C241.957 344.117 240.021 345.573 237.545 345.953C235.518 346.259 233.446 345.943 231.603 345.045C229.237 343.888 227.777 341.662 225.751 340.065C224.615 339.169 226.217 337.586 227.342 338.474C229.32 340.034 230.731 342.302 233.141 343.26C235.72 344.286 238.232 343.763 240.571 342.415C242.458 341.328 244.215 340.084 246.381 339.611C248.624 339.129 250.958 339.307 253.103 340.122C254.448 340.623 253.866 342.798 252.505 342.292H252.505Z" fill="#F2F2F2"/>
<path d="M252.505 352.792C251.145 352.259 249.682 352.038 248.226 352.148C246.769 352.258 245.356 352.694 244.091 353.425C241.957 354.617 240.021 356.073 237.545 356.453C235.518 356.759 233.446 356.443 231.603 355.545C229.237 354.388 227.777 352.162 225.751 350.565C224.615 349.669 226.217 348.086 227.342 348.974C229.32 350.534 230.731 352.802 233.141 353.76C235.72 354.786 238.232 354.263 240.571 352.915C242.458 351.828 244.215 350.584 246.381 350.111C248.624 349.629 250.958 349.807 253.103 350.622C254.448 351.123 253.866 353.298 252.505 352.792H252.505Z" fill="#F2F2F2"/>
<path d="M252.505 363.292C251.145 362.759 249.682 362.538 248.226 362.648C246.769 362.757 245.356 363.194 244.091 363.925C241.957 365.117 240.021 366.573 237.545 366.953C235.518 367.259 233.446 366.942 231.603 366.045C229.237 364.888 227.777 362.662 225.751 361.065C224.615 360.169 226.217 358.586 227.342 359.474C229.32 361.033 230.731 363.302 233.141 364.26C235.72 365.286 238.232 364.763 240.571 363.414C242.458 362.328 244.215 361.084 246.381 360.611C248.624 360.129 250.958 360.307 253.103 361.122C254.448 361.623 253.866 363.798 252.505 363.292H252.505Z" fill="#F2F2F2"/>
<path d="M332.58 154.004C323.888 139.318 306.693 138.634 306.693 138.634C306.693 138.634 289.937 136.491 279.189 158.858C269.17 179.705 255.343 199.834 276.963 204.714L280.868 192.56L283.286 205.619C286.364 205.841 289.452 205.894 292.536 205.777C315.689 205.03 337.739 205.996 337.029 197.688C336.085 186.643 340.943 168.135 332.58 154.004Z" fill="#2F2E41"/>
<path d="M273.246 293.457L243.934 313.813C243.934 313.813 226.836 331.726 239.049 331.726C251.262 331.726 256.147 316.255 256.147 316.255L293.601 299.971L273.246 293.457Z" fill="#FFB8B8"/>
<path d="M285.052 214.071C285.052 214.071 259.404 293.457 267.546 297.528C275.688 301.6 293.601 304.042 293.601 304.042L285.052 214.071Z" fill="#FFA500"/>
<path opacity="0.1" d="M284.361 214.071C284.361 214.071 259.641 293.457 267.489 297.528C275.336 301.6 292.601 304.042 292.601 304.042L284.361 214.071Z" fill="#D8900C"/>
<path d="M374.51 396.885L349.04 441L344.188 438.199C334.914 402.623 323.728 360.221 323.728 360.221L295.727 410.22L259.551 389.333C268.21 370.691 283.015 326.839 283.015 326.839L348.969 293.457C348.969 293.457 370.138 306.484 370.951 338.239C371.765 369.994 371.765 388.721 371.765 388.721C371.765 388.721 372.841 391.815 374.51 396.885Z" fill="#2F2E41"/>
<path d="M301.336 193.716C313.028 193.716 322.506 184.238 322.506 172.546C322.506 160.855 313.028 151.377 301.336 151.377C289.644 151.377 280.167 160.855 280.167 172.546C280.167 184.238 289.644 193.716 301.336 193.716Z" fill="#FFB8B8"/>
<path d="M300.929 190.052C300.929 190.052 305.814 205.522 300.929 211.222C296.044 216.921 327.798 203.079 327.798 203.079C327.798 203.079 316.399 186.795 319.656 179.467L300.929 190.052Z" fill="#FFB8B8"/>
<path d="M331.033 193.424C330.437 194.389 329.764 195.303 329.019 196.159C328.205 196.973 323.32 197.787 322.506 199.415C321.691 201.044 309.685 203.365 309.685 203.365L305.407 205.115C305.407 205.115 285.052 210 285.052 214.071C285.052 218.142 283.423 230.356 283.423 230.356C283.423 230.356 276.91 237.684 280.981 255.596C282.549 262.498 284.736 275.887 283.51 290.078C281.554 312.716 275.789 337.145 281.795 338.646C291.566 341.089 319.249 341.903 328.205 329.69C337.161 317.477 337.976 306.892 347.746 306.078C357.517 305.264 346.118 271.881 346.118 271.881L358.331 192.088C358.331 192.088 337.931 184.991 331.033 193.424Z" fill="#FFA500"/>
<path d="M306.444 320.588H347.056C349.827 304.567 349.827 288.188 347.056 272.167H306.444C311.019 287.983 311.019 304.772 306.444 320.588Z" fill="#4D5CF2"/>
<path d="M314.89 288.667C316.25 288.134 317.712 287.914 319.169 288.023C320.625 288.133 322.039 288.569 323.303 289.3C325.437 290.492 327.373 291.948 329.849 292.328C331.876 292.634 333.948 292.318 335.792 291.42C338.157 290.263 339.618 288.037 341.643 286.44C342.779 285.544 341.177 283.962 340.052 284.849C338.074 286.409 336.663 288.677 334.254 289.635C331.674 290.661 329.163 290.138 326.823 288.79C324.937 287.703 323.179 286.459 321.013 285.987C318.77 285.504 316.436 285.682 314.292 286.498C312.946 286.998 313.528 289.173 314.89 288.667Z" fill="#F2F2F2"/>
<path d="M314.89 299.167C316.25 298.634 317.712 298.414 319.169 298.523C320.625 298.633 322.039 299.069 323.303 299.8C325.437 300.992 327.373 302.448 329.849 302.828C331.876 303.134 333.948 302.818 335.792 301.92C338.157 300.763 339.618 298.537 341.643 296.94C342.779 296.044 341.177 294.462 340.052 295.349C338.074 296.909 336.663 299.177 334.254 300.135C331.674 301.161 329.163 300.638 326.823 299.29C324.937 298.203 323.179 296.959 321.013 296.487C318.77 296.004 316.436 296.182 314.292 296.998C312.946 297.498 313.528 299.673 314.89 299.167Z" fill="#F2F2F2"/>
<path d="M373.394 242.976L344.082 263.331C344.082 263.331 326.984 281.244 339.197 281.244C351.41 281.244 356.295 265.774 356.295 265.774L393.749 249.49L373.394 242.976Z" fill="#FFB8B8"/>
<path d="M323.038 152.588L306.05 143.69L295.391 145.344C291.616 145.929 288.103 147.637 285.31 150.244C282.518 152.852 280.573 156.238 279.729 159.965L277.736 168.768L289.819 168.303L293.194 160.427V168.173L298.769 167.959L302.005 155.42L304.027 168.768L323.847 168.363L323.038 152.588Z" fill="#2F2E41"/>
<path d="M352.631 193.716L358.331 192.088C358.331 192.088 416.14 215.7 414.511 236.055C412.883 256.411 415.326 256.411 405.555 257.225C395.785 258.039 367.287 248.268 368.101 246.64C368.916 245.012 374.615 236.869 374.615 236.869L352.631 219.771V193.716Z" fill="#FAA60C"/>
<path d="M322.506 175.803C324.304 175.803 325.762 174.345 325.762 172.546C325.762 170.748 324.304 169.289 322.506 169.289C320.707 169.289 319.249 170.748 319.249 172.546C319.249 174.345 320.707 175.803 322.506 175.803Z" fill="#FFB8B8"/>
<path d="M354.506 226.908C375.754 225.762 397.298 228.778 418.204 223.636C419.718 223.264 419.077 220.924 417.559 221.298C396.881 226.384 375.526 223.349 354.506 224.483C352.954 224.567 352.944 226.992 354.506 226.908V226.908Z" fill="#3F3D56"/>
<path d="M448.3 262.26L482 239.598C475.359 224.756 466.22 211.165 454.98 199.416L421.28 222.078C433.902 232.65 443.271 246.582 448.3 262.26Z" fill="#4D5CF2"/>
<path d="M439.788 234.179C440.619 232.978 441.71 231.979 442.98 231.257C444.249 230.535 445.666 230.109 447.123 230.009C449.559 229.808 451.978 229.936 454.245 228.87C456.098 227.993 457.641 226.573 458.669 224.8C459.987 222.52 459.956 219.858 460.746 217.402C461.189 216.025 458.977 215.605 458.538 216.97C457.767 219.368 457.862 222.037 456.397 224.177C454.829 226.468 452.453 227.435 449.759 227.622C447.588 227.773 445.435 227.722 443.374 228.538C441.244 229.389 439.405 230.839 438.081 232.713C437.244 233.878 438.941 235.359 439.788 234.179V234.179Z" fill="#F2F2F2"/>
<path d="M445.857 243.204C446.687 242.002 447.778 241.003 449.048 240.282C450.318 239.56 451.734 239.133 453.191 239.034C455.627 238.832 458.046 238.961 460.313 237.894C462.166 237.017 463.709 235.598 464.738 233.824C466.056 231.544 466.025 228.882 466.814 226.427C467.257 225.049 465.045 224.63 464.606 225.994C463.835 228.392 463.93 231.062 462.466 233.202C460.897 235.493 458.521 236.459 455.827 236.646C453.656 236.797 451.503 236.746 449.442 237.562C447.312 238.414 445.474 239.864 444.15 241.737C443.312 242.903 445.009 244.383 445.857 243.204V243.204Z" fill="#F2F2F2"/>
<path d="M170.469 85.6803L0.14341 85.1233L1.96438e-06 128.976L170.325 129.533L170.469 85.6803Z" fill="#757575"/>
<path d="M20.4267 118.982C27.0167 118.982 32.3589 113.64 32.3589 107.05C32.3589 100.46 27.0167 95.1177 20.4267 95.1177C13.8368 95.1177 8.49453 100.46 8.49453 107.05C8.49453 113.64 13.8368 118.982 20.4267 118.982Z" fill="#4D5CF2"/>
<path d="M94.8599 97.2327L45.4937 97.0713L45.4822 100.581L94.8485 100.742L94.8599 97.2327Z" fill="white"/>
<path d="M154.259 105.85L45.4662 105.494L45.4547 109.003L154.248 109.359L154.259 105.85Z" fill="white"/>
<path d="M154.232 114.273L45.4386 113.917L45.4271 117.426L154.22 117.782L154.232 114.273Z" fill="white"/>
<path d="M170.469 202.5L0.14341 201.943L1.93606e-06 245.796L170.325 246.353L170.469 202.5Z" fill="#757575"/>
<path d="M20.4267 235.802C27.0167 235.802 32.3589 230.46 32.3589 223.87C32.3589 217.28 27.0167 211.938 20.4267 211.938C13.8368 211.938 8.49453 217.28 8.49453 223.87C8.49453 230.46 13.8368 235.802 20.4267 235.802Z" fill="#4D5CF2"/>
<path d="M94.8599 214.053L45.4937 213.891L45.4822 217.401L94.8485 217.562L94.8599 214.053Z" fill="white"/>
<path d="M154.259 222.67L45.4662 222.314L45.4547 225.824L154.248 226.179L154.259 222.67Z" fill="white"/>
<path d="M154.232 231.093L45.4386 230.737L45.4271 234.246L154.22 234.602L154.232 231.093Z" fill="white"/>
<path d="M41.1297 187.987L211.455 187.43L211.312 143.577L40.9863 144.134L41.1297 187.987Z" fill="#757575"/>
<path d="M191.028 177.436C197.618 177.436 202.96 172.093 202.96 165.503C202.96 158.913 197.618 153.571 191.028 153.571C184.438 153.571 179.096 158.913 179.096 165.503C179.096 172.093 184.438 177.436 191.028 177.436Z" fill="#4D5CF2"/>
<path d="M116.606 159.196L165.973 159.034L165.961 155.525L116.595 155.686L116.606 159.196Z" fill="white"/>
<path d="M57.2073 167.813L166 167.457L165.989 163.948L57.1959 164.303L57.2073 167.813Z" fill="white"/>
<path d="M57.2349 176.236L166.028 175.88L166.016 172.37L57.2234 172.726L57.2349 176.236Z" fill="white"/>
</svg>
