<svg width="498" height="481" viewBox="0 0 498 481" fill="none" xmlns="http://www.w3.org/2000/svg">
<path d="M0 268.472C0 385.848 100.269 481 223.958 481C347.646 481 447.915 385.848 447.915 268.472C447.915 151.096 279.947 266.54 223.958 46.2843C127.249 -104.417 0 151.096 0 268.472Z" fill="white"/>
<g clip-path="url(#clip0)">
<path d="M212.194 317.445L214.532 418.494H218.989L218.706 317.7L212.194 317.445Z" fill="#C9C8C8"/>
<path d="M237.892 316.325L216.225 418.494H211.26L229.296 316.325H237.892Z" fill="#C9C8C8"/>
<path d="M186.039 316.325L164.372 418.494H159.408L177.443 316.325H186.039Z" fill="#C9C8C8"/>
<path d="M257.382 317.445L259.72 418.494H264.177L263.895 317.7L257.382 317.445Z" fill="white"/>
<path d="M179.517 206.36C179.517 206.36 152.051 204.791 154.794 236.58C157.536 268.37 159.112 300.551 169.313 311.541C179.514 322.531 282.329 322.923 290.966 313.895C299.604 304.868 274.482 305.262 269.765 305.262C265.048 305.262 236.018 308.009 226.6 283.284C217.183 258.558 219.542 204.791 179.517 206.36Z" fill="#D6D6D6"/>
<path d="M177.755 206.378C177.755 206.378 156.755 210.677 158.719 232.656C160.683 254.634 166.171 293.095 176.378 302.906C186.584 312.718 226.559 314.856 248.193 313.503C273.306 311.934 289.16 307.151 289.16 307.151C289.16 307.151 293.744 310.099 292.354 311.998C290.965 313.897 278.722 321.53 219.363 320.26C160.003 318.989 164.131 310.225 161.671 300.66C159.212 291.094 154.036 240.076 154.755 228.861C155.473 217.646 161.108 208.344 177.755 206.378Z" fill="#C9C8C8"/>
<path d="M190.809 254.607C189.549 258.626 188.667 262.753 188.176 266.936L241.226 269.068L252.739 269.534L250.427 258.794L246.539 240.755L246.604 240.095L247.625 230.415L247.935 227.43L248.413 222.933C248.413 222.933 254.512 220.231 254.512 214.378C254.512 211.483 253.724 208.859 252.988 207.012V206.998C252.652 206.148 252.254 205.323 251.799 204.53C251.773 204.478 251.747 204.453 251.747 204.415L272.524 221.564L278.167 207.347L280.425 201.713L281.317 199.464C281.317 199.464 269.816 186.981 260.461 176.422C255.696 171.046 249.361 169.056 244.451 168.372C240.032 167.744 236.75 168.19 236.75 168.19L216.967 168.513C216.967 168.513 212.432 168.733 206.967 170.361C199.549 172.571 190.4 177.385 188.553 187.73L184.167 209.683H196.494L196.773 216.795L197.38 232.186L197.69 239.798C194.759 244.413 192.446 249.391 190.809 254.607Z" fill="#FEAD00"/>
<path d="M251.721 204.388L251.734 204.401L272.524 221.564L278.167 207.347C266.203 198.715 248.603 195.91 247.88 196.014C247.133 196.117 251.01 203.035 251.721 204.388Z" fill="#F27203"/>
<path d="M247.935 227.43L248.413 222.933C248.413 222.933 254.512 220.231 254.512 214.378C254.512 211.483 253.724 208.859 252.988 207.012V206.998C252.652 206.148 252.254 205.323 251.799 204.53C251.773 204.478 251.747 204.453 251.747 204.414L251.734 204.401C253.615 211.444 250.067 220.813 241.746 224.122C234.73 226.913 240.44 228.968 247.935 227.43Z" fill="#FFD579"/>
<path d="M244.446 168.372C246.811 169.069 249.782 170.31 251.799 172.352C255.185 175.776 265.947 196.376 280.42 201.713L281.312 199.464C281.312 199.464 269.811 186.981 260.456 176.422C255.688 171.05 249.356 169.057 244.446 168.372Z" fill="#FFD579"/>
<path d="M184.167 209.683H189.84C190.395 204.333 191.47 199.202 192.644 195.79C196.03 185.956 203.885 175.436 206.962 170.357C199.545 172.567 190.395 177.381 188.548 187.726L184.167 209.683Z" fill="#F27203"/>
<path d="M188.173 266.936L241.224 269.068C245.164 265.152 248.344 261.509 250.424 258.794L246.536 240.755L246.602 240.095L247.623 230.415L248.41 222.933C248.41 222.933 226.664 227.249 217.182 226.163C207.699 225.077 206.857 221.64 206.962 218.784C207.066 215.928 206.431 198.276 206.431 198.276C206.431 198.276 205.346 203.225 203.575 209.69C203.575 209.69 200.771 212.353 196.779 216.798L197.386 232.19L197.696 239.801C194.763 244.416 192.448 249.395 190.809 254.611C189.548 258.628 188.666 262.755 188.173 266.936Z" fill="#F27203"/>
<path d="M94.8079 247.671H103.609L96.2422 406.602L98.4031 407.006C99.3951 407.198 100.382 407.382 101.37 407.558L108.788 247.671H373.916L383.031 415.31C384.746 415.002 386.459 414.683 388.162 414.364L379.094 247.671H392.719C395.217 247.671 397.242 245.643 397.242 243.142C397.242 240.641 395.217 238.614 392.719 238.614H94.8079C92.3099 238.614 90.285 240.641 90.285 243.142C90.285 245.643 92.3099 247.671 94.8079 247.671Z" fill="#101D71"/>
<path d="M333.017 183.538L314.203 238.523H229.011L229.639 235.692L264.087 234.627L279.957 183.509L333.017 183.538Z" fill="#2B42A0"/>
<path d="M196.223 166.91C196.689 166.885 197.115 166.859 197.515 166.846C201.728 166.705 202.761 167.724 209.223 168.022C215.8 168.32 221.433 164.804 226.279 164.675C226.624 164.654 226.97 164.658 227.314 164.688C232.392 165.102 229.07 134.435 229.07 134.435C233.656 129.2 238.451 113.913 222.272 113.292C206.094 112.671 214.873 125.815 206.107 129.059C197.342 132.302 202.291 148.004 197.776 151.608C193.261 155.211 190.848 167.312 196.223 166.91Z" fill="#202F85"/>
<path d="M197.515 166.846C201.728 166.705 202.761 167.724 209.223 168.022C215.8 168.32 221.433 164.804 226.279 164.675C227.765 153.574 228.606 142.975 224.51 140.509C219.561 137.537 214.895 133.987 214.895 133.987C212.505 138.51 209.973 137.657 209.921 141.701C209.87 145.745 208.04 146.467 209.081 149.779C210.122 153.09 207.182 159.51 202.232 161.015C199.854 161.741 197.968 164.222 197.515 166.846Z" fill="#000A5D"/>
<path d="M225.103 165.347C228.889 166.627 233.605 167.247 236.977 166.459C243.865 164.868 245.983 163.699 255.196 163.499C255.421 163.499 255.645 163.486 255.869 163.461C264.229 162.918 260.585 155.822 255.417 150.04C250.118 144.108 257.213 137.84 256.36 132.864C255.507 127.888 251.553 129.079 248.835 126.041C246.118 123.003 245.98 113.894 236.857 114.216C227.734 114.539 225.952 123.431 228.07 127.993C230.616 131.87 228.355 141.485 227.256 144.005C226.158 146.525 219.917 156.527 218.793 160.172C218.219 162.026 221.161 164.042 225.103 165.347Z" fill="#202F85"/>
<path d="M225.103 165.347C228.889 166.627 233.605 167.246 236.977 166.459C243.865 164.868 245.983 163.699 255.196 163.499C255.421 163.499 255.645 163.486 255.869 163.461C255.895 159.014 250.042 158.536 247.199 154.659C244.355 150.782 245.286 134.888 243.839 130.674C243.839 130.674 224.845 144.321 224.525 158.214C224.457 161.186 224.638 163.512 225.103 165.347Z" fill="#000A5D"/>
<path d="M214.029 133.207L214.986 148.908L216.2 168.666C216.251 169.544 216.433 178.229 217.014 178.81C217.619 179.42 218.429 179.784 219.287 179.831L226.899 180.296L230.362 180.516C231.391 180.582 232.408 180.265 233.217 179.625C233.279 179.585 233.336 179.537 233.385 179.482C234.258 178.739 234.786 177.669 234.845 176.523C234.949 174.598 235.194 169.299 235.362 165.745C235.466 163.781 235.53 162.358 235.53 162.358C235.53 162.358 243.306 161.531 243.775 153.816C243.994 150.288 244.007 144.64 243.968 139.549V139.458C243.904 133.488 243.775 128.319 243.775 128.319L229.613 121.391L214.029 133.207Z" fill="#FC9E9E"/>
<path d="M239.775 129.782C236.254 130.83 231.645 129.86 231.041 128.972C231.041 128.972 229.472 131.799 225.312 132.769C221.152 133.739 216.462 136.247 216.06 136.891C215.659 137.534 217.44 126.549 223.01 123.399C228.579 120.25 235.608 119.199 237.547 122.511C239.486 125.824 239.775 129.782 239.775 129.782Z" fill="#FA6D6D"/>
<path d="M235.526 162.362C235.526 162.362 230.331 162.42 225.307 158.91C225.307 158.91 227.623 164.574 235.358 164.254L235.526 162.362Z" fill="#FA6D6D"/>
<path d="M211.987 133.53L212.801 137.419C214.339 140.921 218.293 132.689 222.751 132.159C227.21 131.63 227.998 128.657 231.227 126.913C231.256 126.952 231.282 126.994 231.305 127.038C231.499 127.322 232.223 128.033 234.73 129.338C238.063 131.083 242.255 128.279 243.839 130.669C244.485 131.639 244.757 132.918 244.925 133.805C245.169 135.122 245.196 135.64 245.854 133.145C246.965 128.958 249.447 124.138 242.457 122.471C235.466 120.804 230.166 117.579 226.085 119.266C222.004 120.953 211.987 133.53 211.987 133.53Z" fill="#202F85"/>
<path d="M208.796 144.812C209.235 146.052 210.127 146.932 211.187 147.526V147.539C213.861 149.09 217.569 148.947 217.569 148.947L218.151 137.157C211.755 135.727 207.206 140.418 208.796 144.812Z" fill="#FC9E9E"/>
<path d="M298.197 216.244C296.139 215.642 295.152 212.818 295.992 209.934C296.832 207.051 299.182 205.202 301.24 205.803C303.299 206.405 304.286 209.23 303.446 212.113C302.606 214.996 300.256 216.845 298.197 216.244Z" fill="#000A5D"/>
<path d="M334.514 144.065C335.32 144.066 336.093 143.746 336.663 143.176C337.233 142.606 337.552 141.833 337.552 141.027V114.695C337.55 113.018 336.191 111.659 334.514 111.658H304.153C302.475 111.658 301.115 113.017 301.114 114.695V141.027C301.114 141.833 301.435 142.606 302.004 143.176C302.574 143.746 303.347 144.066 304.153 144.065H334.514Z" fill="#2B42A0"/>
<path d="M314.689 125.346H315.135V122.863C315.135 120.216 317.206 118.031 319.788 118.031C322.369 118.031 324.441 120.216 324.441 122.863V125.346H324.887C325.588 125.346 326.162 125.942 326.162 126.703V135.176C326.162 135.937 325.588 136.533 324.887 136.533H314.689C313.987 136.533 313.414 135.937 313.414 135.176V126.736C313.382 125.975 313.956 125.346 314.689 125.346ZM322.847 122.863C322.847 121.109 321.477 119.686 319.788 119.686C318.099 119.686 316.728 121.109 316.728 122.863V125.346H322.847V122.863ZM318.832 131.833V133.091C318.832 133.62 319.246 134.084 319.788 134.084C320.298 134.084 320.744 133.653 320.744 133.091V131.833C321.318 131.502 321.7 130.873 321.7 130.145C321.7 129.053 320.84 128.192 319.82 128.192C318.768 128.192 317.939 129.086 317.939 130.145C317.907 130.873 318.29 131.502 318.832 131.833Z" fill="#F4F4F4"/>
<path d="M214.986 148.908L216.2 168.666C216.251 169.544 216.433 178.229 217.014 178.81C217.619 179.42 218.429 179.784 219.287 179.831L226.899 180.296C224.185 172.52 222.815 159.426 222.532 158.288C222.286 157.413 217.582 151.894 214.986 148.908Z" fill="#FA6D6D"/>
<path d="M160.544 134.255C161.271 134.255 161.968 133.859 162.481 133.153C162.995 132.447 163.284 131.49 163.283 130.492V102.243C163.283 101.246 162.995 100.289 162.481 99.5834C161.967 98.8779 161.27 98.4818 160.544 98.4822H125.033C124.306 98.4813 123.609 98.8772 123.095 99.5828C122.581 100.288 122.292 101.245 122.293 102.243V130.492C122.293 132.57 123.519 134.255 125.033 134.255H160.544Z" fill="#2B42A0"/>
<path d="M142.732 104.947H142.683C139.931 104.947 137.293 106.045 135.351 107.998C133.41 109.951 132.326 112.598 132.339 115.354C132.365 121.038 137.126 125.663 142.952 125.663H143.33C144.044 125.663 144.623 125.083 144.623 124.368C144.623 123.653 144.044 123.074 143.33 123.074H142.952C138.545 123.074 134.944 119.604 134.925 115.341C134.915 113.274 135.729 111.289 137.185 109.825C138.641 108.36 140.619 107.537 142.683 107.537H142.719C146.976 107.556 150.442 111.162 150.442 115.574V118.542C150.442 119.257 149.863 119.837 149.149 119.837C148.434 119.837 147.855 119.257 147.855 118.542V115.305C147.863 112.933 146.265 110.856 143.972 110.26C141.679 109.663 139.273 110.698 138.127 112.774C136.98 114.85 137.384 117.44 139.108 119.068C140.832 120.695 143.438 120.946 145.441 119.678C146.005 121.515 147.825 122.662 149.722 122.378C151.62 122.094 153.025 120.463 153.028 118.542V115.574C153.028 109.741 148.408 104.973 142.732 104.947ZM142.683 117.895C141.255 117.895 140.097 116.735 140.097 115.305C140.097 113.875 141.255 112.716 142.683 112.716C144.112 112.716 145.269 113.875 145.269 115.305C145.269 116.735 144.112 117.895 142.683 117.895Z" fill="#F4F4F4"/>
<path d="M160.187 175.829H182.7C183.03 175.822 183.342 175.682 183.567 175.44C183.932 175.075 184.167 174.485 184.167 173.819V150.959C184.176 150.452 184.026 149.956 183.737 149.539C183.473 149.176 183.11 148.951 182.7 148.951H160.187C159.844 148.959 159.52 149.11 159.292 149.367C158.908 149.807 158.703 150.375 158.719 150.959V173.819C158.709 174.328 158.859 174.828 159.148 175.247C159.414 175.603 159.775 175.829 160.187 175.829Z" fill="#2B42A0"/>
<path d="M165.889 154.771H166.355V166.515C166.355 167.295 166.975 167.93 167.735 167.93H172.458H176.213V168.365C176.213 168.864 175.818 169.268 175.332 169.268H170.612H165.891C165.405 169.268 165.01 168.864 165.01 168.365V155.674C165.01 155.176 165.403 154.771 165.889 154.771Z" fill="white"/>
<path d="M172.458 167.418H167.737C167.251 167.418 166.856 167.013 166.856 166.515V154.771V153.824C166.856 153.325 167.251 152.921 167.737 152.921H172.458H174.027V153.219C174.024 153.25 174.022 153.282 174.022 153.315V155.283V155.789C174.022 156.49 174.578 157.06 175.262 157.06H175.755H177.674C177.699 157.06 177.726 157.059 177.751 157.057H178.057V166.515C178.057 167.013 177.663 167.418 177.177 167.418H176.211H172.458ZM172.28 164.348H175.357C175.587 164.348 175.773 164.157 175.773 163.921C175.773 163.686 175.587 163.495 175.357 163.495H172.278C172.048 163.495 171.862 163.686 171.862 163.921C171.862 164.157 172.05 164.348 172.28 164.348ZM169.2 162.17H175.357C175.587 162.17 175.773 161.979 175.773 161.743C175.773 161.507 175.587 161.316 175.357 161.316H169.2C168.97 161.316 168.784 161.507 168.784 161.743C168.784 161.979 168.97 162.17 169.2 162.17ZM175.357 159.003H169.2C168.97 159.003 168.784 159.194 168.784 159.43C168.784 159.665 168.97 159.857 169.2 159.857H175.357C175.587 159.857 175.773 159.665 175.773 159.43C175.773 159.194 175.587 159.003 175.357 159.003Z" fill="white"/>
<path d="M177.675 156.548H175.263C175.261 156.548 175.258 156.548 175.256 156.548C174.854 156.545 174.527 156.21 174.524 155.797C174.524 155.795 174.524 155.792 174.524 155.79V153.315C174.524 153.086 174.707 152.934 174.897 152.934C174.988 152.934 175.08 152.968 175.156 153.047L177.938 155.9C178.171 156.139 178.006 156.548 177.675 156.548Z" fill="white"/>
<path d="M254.473 405.248C255.351 405.143 259.19 404.136 262.795 403.14C266.373 402.171 269.747 401.215 269.747 401.215L269.604 382.321L253.775 379.091C253.775 379.091 253.62 382.98 253.525 387.762C253.375 395.425 253.388 405.377 254.473 405.248Z" fill="#FC9E9E"/>
<path d="M254.473 405.248C255.351 405.143 259.19 404.136 262.795 403.14C263.422 398.527 266.064 392.66 264.823 388.989H264.436C264.436 388.989 258.466 387.555 253.525 387.762C253.375 395.425 253.388 405.377 254.473 405.248Z" fill="#FA6D6D"/>
<path d="M255.642 400.104C256.287 401.032 260.244 403.02 262.867 401.232C263.707 400.647 264.33 400.159 264.847 399.775C265.789 399.078 266.337 398.73 267.068 398.889C267.203 398.919 267.335 398.961 267.462 399.015C268.842 399.578 266.432 397.493 267.989 396.783C269.545 396.073 270.078 394.914 270.865 397.628C271.651 400.341 275.904 404.746 276.494 404.903C277.085 405.059 280.416 406.572 283.091 409.468C285.714 409.97 289.723 409.82 290.709 409.343C291.695 408.866 293.309 408.314 294.05 409.101C294.627 409.728 293.823 416.429 282.981 417.031C280.046 417.2 276.37 416.918 271.788 415.942C268.883 415.315 266.352 414.764 264.146 414.245C250.018 410.95 249.214 409.697 249.214 409.697C249.214 409.697 248.534 403.307 251.854 399.766C255.174 396.225 255.004 399.172 255.642 400.104Z" fill="#101D71"/>
<path d="M270.865 397.616C271.651 400.329 275.904 404.734 276.494 404.891C277.085 405.048 280.416 406.561 283.091 409.457C285.714 409.959 289.723 409.808 290.709 409.332C291.695 408.855 293.309 408.303 294.05 409.089C294.627 409.717 293.823 416.417 282.981 417.019C277.839 416.605 274.397 415.06 273.271 412.341C271.382 407.799 269.85 401.502 267.291 399.109C267.207 399.036 267.14 398.953 267.068 398.883C267.203 398.912 267.335 398.954 267.462 399.008C268.842 399.572 266.432 397.487 267.989 396.777C269.545 396.067 270.078 394.903 270.865 397.616Z" fill="#2B42A0"/>
<path d="M255.642 400.103C256.288 401.032 260.244 403.02 262.867 401.232C263.707 400.647 264.33 400.159 264.847 399.775C266.627 400.802 268.302 402.193 268.82 404.324C269.741 408.106 263.539 409.843 262.029 410.207C261.231 410.399 262.927 412.279 264.146 414.24C250.018 410.945 249.214 409.691 249.214 409.691C249.214 409.691 248.534 403.302 251.854 399.761C255.174 396.22 255.005 399.171 255.642 400.103Z" fill="#000A5D"/>
<path d="M249.238 407.843C249.99 409.635 254.994 411.229 258.865 411.587C259.956 411.689 261.299 411.87 262.681 412.089C266.179 412.62 269.868 413.343 270.126 413.491C270.332 413.606 272.059 414.108 275.017 414.561C277.74 414.98 280.487 415.235 283.241 415.325C297.657 415.409 290.559 407.091 293.789 408.752C296.789 410.291 296.686 413.268 291.647 416.87C291.251 417.156 290.824 417.447 290.363 417.736C284.071 421.729 268.968 418.168 268.968 418.168C268.968 418.168 267.635 418.025 265.099 417.635C262.291 417.21 258.006 416.495 252.456 415.347C241.922 413.155 249.238 407.843 249.238 407.843Z" fill="#D6D6D6"/>
<path d="M249.238 407.843C249.99 409.635 254.994 411.229 258.865 411.587C259.956 411.689 261.299 411.87 262.681 412.089C263.849 413.783 265.719 416.21 265.094 417.635C262.286 417.21 258.001 416.495 252.451 415.347C241.922 413.155 249.238 407.843 249.238 407.843Z" fill="#B7B7B7"/>
<path d="M293.784 408.743C296.784 410.282 296.681 413.259 291.642 416.861C283.834 417.614 277.972 416.878 275.012 414.552C277.735 414.971 280.482 415.226 283.236 415.316C297.652 415.404 290.554 407.086 293.784 408.743Z" fill="white"/>
<path d="M194.001 300.627L206.987 303.922L229.506 309.622L248.217 314.364L251.705 385.339H272.706C272.706 385.339 275.923 358.756 278.098 334.539C278.447 330.508 278.783 326.54 279.068 322.778C280.089 309.184 280.464 298.186 279.3 295.989C278.008 293.573 270.308 289.215 261.115 284.707C254.796 281.593 247.754 278.413 241.643 275.739C233.01 271.965 226.188 269.186 225.722 269.031L194.001 300.627Z" fill="#101D71"/>
<path d="M206.987 303.922L229.506 309.622L248.217 314.364L251.705 385.339H258.786C258.159 375.155 256.589 346.026 259.037 337.199C261.685 327.597 272.331 328.787 279.065 322.775C279.26 320.203 279.427 317.722 279.567 315.383C280.174 305.328 280.239 297.769 279.295 295.985C278.003 293.569 270.303 289.212 261.11 284.704C254.791 281.589 247.749 278.409 241.638 275.735C239.186 275.706 236.736 275.873 234.311 276.237C233.91 276.302 233.522 276.362 233.122 276.444C215.115 279.705 202.322 292.446 206.987 303.922Z" fill="#000A5D"/>
<path d="M215.154 299.617C220.49 300.536 251.553 294.098 261.115 284.705C245.854 277.222 226.524 269.301 225.723 269.026L194.001 300.623L229.506 309.622C221.782 304.711 211.406 298.973 215.154 299.617Z" fill="#010D51"/>
<path d="M265.676 385.339H272.699C272.699 385.339 275.916 358.756 278.092 334.539C275.082 340.183 271.154 342.383 269.746 350.228C268.403 357.76 266.541 375.776 265.676 385.339Z" fill="#2B42A0"/>
<path d="M251.566 290.712C267.601 287.067 271.658 304.81 279.567 315.382C280.174 305.327 280.239 297.767 279.295 295.984C278.003 293.568 270.303 289.21 261.11 284.702C254.791 281.588 247.749 278.408 241.638 275.734C239.186 275.704 236.736 275.872 234.311 276.236C233.91 276.301 233.522 276.361 233.122 276.443C230.698 283.938 239.097 293.545 251.566 290.712Z" fill="#010D51"/>
<path d="M252.988 206.998C252.652 206.148 252.254 205.323 251.799 204.53C252.018 204.995 252.406 205.848 252.988 206.998Z" fill="#F27203"/>
<path d="M184.167 237.046C190.719 237.046 234.497 233.408 247.126 235.145C249.582 235.482 251.597 235.365 253.122 234.926C255.06 234.395 256.249 233.374 256.662 232.173C257.592 229.446 254.465 225.763 246.894 224.82C237.009 223.579 220.417 222.997 210.649 223.075C210.183 223.075 209.718 223.088 209.292 223.088H209.265C206.506 223.114 204.446 223.213 203.464 223.372C201.034 223.749 201.345 219.495 202.094 215.631C202.489 213.626 202.985 211.642 203.58 209.686H184.172C184.172 209.686 177.616 237.046 184.167 237.046Z" fill="#FC9E9E"/>
<path d="M184.167 237.046C190.719 237.046 234.496 233.408 247.126 235.145C249.581 235.482 251.597 235.365 253.122 234.926C252.759 233.026 250.098 230.829 245.149 229.692C238.12 228.076 206.436 232.095 196.422 232.2C189.716 232.265 188.707 220.544 189.845 209.688H184.172C184.172 209.688 177.616 237.046 184.167 237.046Z" fill="#FA6D6D"/>
<path d="M210.644 223.075C212.659 223.67 215.877 224.342 220.851 225.143C230.93 226.758 241.707 224.277 246.76 225.841C250.648 227.055 253.908 231.485 256.657 232.173C257.587 229.446 254.46 225.763 246.889 224.82C237.004 223.579 220.412 222.997 210.644 223.075Z" fill="#F0C2D2"/>
<path d="M200.797 223.928C202.903 225.117 205.773 223.192 209.26 223.088C206.501 223.114 204.441 223.213 203.459 223.372C201.029 223.749 201.34 219.495 202.089 215.631C200.927 218.435 199.324 223.104 200.797 223.928Z" fill="#FA6D6D"/>
<path d="M311.152 365.846C311.873 365.331 314.75 362.599 317.43 359.99C320.1 357.416 322.595 354.954 322.595 354.954L313.369 338.465L297.943 343.26C297.943 343.26 299.681 346.743 301.905 350.978C305.46 357.773 310.265 366.486 311.152 365.846Z" fill="#FC9E9E"/>
<path d="M311.152 365.846C311.873 365.331 314.75 362.599 317.43 359.99C315.762 355.643 315.247 349.231 312.392 346.612L312.052 346.799C312.052 346.799 306.13 348.418 301.904 350.978C305.46 357.773 310.265 366.487 311.152 365.846Z" fill="#FA6D6D"/>
<path d="M309.701 360.781C310.713 361.282 315.137 361.118 316.572 358.283C317.026 357.365 317.337 356.638 317.604 356.052C318.095 354.987 318.407 354.421 319.126 354.207C319.257 354.165 319.392 354.137 319.528 354.121C321.009 353.95 317.898 353.285 318.915 351.913C319.932 350.54 319.847 349.268 321.842 351.267C323.838 353.265 329.686 355.077 330.283 354.934C330.88 354.791 334.524 354.508 338.262 355.757C340.804 354.937 344.243 352.872 344.875 351.972C345.507 351.071 346.658 349.818 347.687 350.15C348.494 350.422 351.018 356.68 341.806 362.433C339.315 363.994 335.959 365.518 331.473 366.872C328.627 367.726 326.141 368.458 323.959 369.065C309.992 372.985 308.682 372.274 308.682 372.274C308.682 372.274 305.01 367.006 306.213 362.3C307.416 357.593 308.694 360.27 309.701 360.781Z" fill="#101D71"/>
<path d="M321.842 351.267C323.838 353.265 329.686 355.077 330.283 354.934C330.88 354.791 334.524 354.508 338.262 355.757C340.804 354.937 344.243 352.872 344.875 351.972C345.507 351.071 346.658 349.818 347.687 350.15C348.494 350.422 351.018 356.68 341.806 362.433C337.099 364.547 333.34 364.851 331.043 363.011C327.201 359.94 322.824 355.16 319.429 354.296C319.32 354.272 319.222 354.233 319.126 354.207C319.257 354.165 319.392 354.137 319.528 354.121C321.009 353.95 317.898 353.285 318.915 351.913C319.932 350.54 319.847 349.268 321.842 351.267Z" fill="#2B42A0"/>
<path d="M309.701 360.781C310.713 361.282 315.137 361.118 316.572 358.283C317.026 357.365 317.337 356.638 317.604 356.052C319.66 356.094 321.798 356.507 323.278 358.125C325.912 360.995 321.312 365.509 320.16 366.552C319.553 367.105 321.946 367.932 323.959 369.06C309.992 372.98 308.682 372.269 308.682 372.269C308.682 372.269 305.01 367.001 306.213 362.295C307.416 357.588 308.694 360.27 309.701 360.781Z" fill="#000A5D"/>
<path d="M307.816 370.647C309.341 371.855 314.492 370.842 318.055 369.29C319.058 368.855 320.325 368.365 321.639 367.888C324.96 366.668 328.537 365.522 328.839 365.529C329.075 365.529 330.829 365.138 333.636 364.113C336.224 363.168 338.753 362.068 341.21 360.821C353.885 353.948 343.657 350.079 347.288 349.978C350.658 349.881 352.002 352.538 349.322 358.124C349.111 358.565 348.878 359.026 348.613 359.504C345.021 366.035 330.072 370.192 330.072 370.192C330.072 370.192 328.835 370.707 326.425 371.588C323.76 372.567 319.66 374.006 314.243 375.674C303.964 378.826 307.816 370.647 307.816 370.647Z" fill="#D6D6D6"/>
<path d="M307.816 370.647C309.341 371.855 314.492 370.841 318.055 369.29C319.058 368.855 320.325 368.365 321.639 367.888C323.479 368.808 326.286 370.035 326.425 371.585C323.76 372.565 319.66 374.004 314.243 375.672C303.964 378.826 307.816 370.647 307.816 370.647Z" fill="#B7B7B7"/>
<path d="M347.288 349.978C350.658 349.881 352.002 352.538 349.322 358.124C342.839 362.543 337.347 364.725 333.636 364.113C336.224 363.168 338.753 362.068 341.21 360.821C353.885 353.948 343.657 350.079 347.288 349.978Z" fill="white"/>
<path d="M194.001 300.627C204.182 303.367 263.441 281.178 263.441 281.178L298.096 349.539L309.545 344.271L313.861 342.281L321.032 338.973C321.032 338.973 288.768 254.12 280.588 250.242C279.36 249.66 276.414 249.57 272.292 249.816C268.261 250.074 263.092 250.669 257.316 251.47H257.303C235.065 254.571 203.679 260.839 192.308 263.166C189.684 263.695 186.558 265.634 186.351 268.308C185.588 277.715 179.245 296.647 194.001 300.627Z" fill="#101D71"/>
<path d="M272.292 249.813C272.847 259.919 284.49 278.438 290.679 289.229C296.481 299.296 307.749 330.88 313.861 342.278L321.032 338.97C321.032 338.97 288.768 254.117 280.588 250.24C279.36 249.658 276.412 249.57 272.292 249.813Z" fill="#2B42A0"/>
<path d="M194.001 300.627C204.182 303.367 263.441 281.178 263.441 281.178L298.096 349.539L309.545 344.271C295.718 330.173 268.003 277.485 266.465 269.071C264.835 260.31 258.22 258.37 242.385 261.279C226.55 264.188 249.273 253.771 257.297 251.47C235.058 254.571 203.673 260.839 192.302 263.166C189.678 263.695 186.551 265.634 186.345 268.308C185.588 277.714 179.245 296.647 194.001 300.627Z" fill="#000A5D"/>
<path d="M292.797 345.337L296.573 354.03L315.51 346.89L325.824 342.999L325.819 342.988L323.118 333.953L317.08 336.22L307.995 339.637L292.797 345.337Z" fill="#101D71"/>
<path d="M317.08 336.22C319.131 339.188 323.064 341.786 325.819 342.993L323.118 333.962L317.08 336.22Z" fill="#2B42A0"/>
<path d="M292.797 345.337L296.572 354.03L315.51 346.89C313.299 345.306 310.052 342.338 307.995 339.637L292.797 345.337Z" fill="#000A5D"/>
<path d="M245.144 379.498L245.454 388.97L265.689 389.306L276.711 389.487V389.474L277.525 380.08L271.078 379.963L261.373 379.795L245.144 379.498Z" fill="#101D71"/>
<path d="M271.078 379.963C271.892 383.475 274.589 387.342 276.711 389.474L277.525 380.08L271.078 379.963Z" fill="#2B42A0"/>
<path d="M245.144 379.498L245.454 388.97L265.689 389.301C264.216 387.013 262.291 383.06 261.373 379.79L245.144 379.498Z" fill="#000A5D"/>
<path d="M231.658 124.114C231.687 124.154 231.713 124.196 231.736 124.24C231.929 124.523 232.653 125.234 235.16 126.539C238.494 128.284 242.685 125.48 244.27 127.871C244.916 128.839 245.187 130.119 245.355 131.007C245.213 126.522 244.603 125.062 241.608 124.39C238.221 123.627 234.606 125.227 232.667 123.804C230.728 122.382 230.701 122.808 231.658 124.114Z" fill="#2B42A0"/>
<path d="M235.526 162.362C235.526 162.362 243.302 161.534 243.771 153.82C243.991 150.292 244.003 144.644 243.964 139.552C243.697 147.514 242.262 157.754 235.526 162.362Z" fill="#F0C2D2"/>
<path d="M208.796 144.812C209.235 146.052 210.127 146.932 211.187 147.526C210.498 146.673 210.08 145.633 209.984 144.541C209.713 140.768 213.422 138.285 218.151 137.162C211.755 135.727 207.206 140.418 208.796 144.812Z" fill="#F0C2D2"/>
<path d="M231.085 176.577C231.809 178.218 232.688 179.02 233.385 179.485C234.258 178.741 234.786 177.671 234.845 176.526C234.949 174.601 235.194 169.301 235.362 165.748C233.709 171.563 229.613 173.243 231.085 176.577Z" fill="#F0C2D2"/>
</g>
<defs>
<clipPath id="clip0">
<rect width="437.736" height="324.908" fill="white" transform="translate(59.3827 98.4057)"/>
</clipPath>
</defs>
</svg>
